<svg viewBox="0 0 64 64" fill="none" xmlns="http://www.w3.org/2000/svg">
<g clip-path="url(#clip0_61_117)">
<path d="M63.8887 12.5458L58.0784 58.7037L31.961 63.8384L5.91546 58.711L0.111328 12.5458H63.8887Z" fill="#E44D26"/>
<path d="M32 59.9136L53.1042 55.7645L58.0695 16.3204H32V59.9136Z" fill="#F16529"/>
<path d="M20.7051 27.6445H32V21.9824H11.9792L12.1704 23.5014L14.1327 39.1043H32V33.4424H21.4347L20.7051 27.6445Z" fill="#EBEBEB"/>
<path d="M22.5044 41.9354H14.4895L15.6081 50.8255L31.9633 54.0453L32 54.038V48.1472L31.965 48.1538L23.0729 46.4511L22.5044 41.9354Z" fill="#EBEBEB"/>
<path d="M6.04517 0H10.1027V2.8428H13.8143V0H17.872V8.6087H13.8145V5.726H10.1028V8.6087H6.04534L6.04517 0Z" fill="white"/>
<path d="M23.2078 2.85477H19.6357V0H30.8393V2.85477H27.2656V8.6087H23.208L23.2078 2.85477Z" fill="white"/>
<path d="M32.6173 0H36.8482L39.4507 3.02484L42.0506 0H46.2831V8.6087H42.2423V4.34175L39.4507 7.40262H39.3809L36.5874 4.34175V8.6087H32.6173V0Z" fill="white"/>
<path d="M48.3025 0H52.3612V5.76315H58.0672V8.6087H48.3025V0Z" fill="white"/>
<path d="M31.9724 39.1043H41.8041L40.8774 46.4474L31.9724 48.1519V54.0425L48.3406 50.8255L48.4607 49.8689L50.3369 34.9628L50.5317 33.4424H31.9724V39.1043Z" fill="white"/>
<path d="M31.9724 27.6306V27.6445H51.2582L51.4184 26.3718L51.7822 23.5014L51.9731 21.9824H31.9724V27.6306Z" fill="white"/>
</g>
<defs>
<clipPath id="clip0_61_117">
<rect width="64" height="64" fill="white"/>
</clipPath>
</defs>
</svg>
