<svg viewBox="0 0 64 64" fill="none" xmlns="http://www.w3.org/2000/svg">
<path d="M52.6208 20.7224C51.9569 20.4658 51.269 20.2231 50.5606 19.9935C50.677 19.46 50.7839 18.9334 50.8789 18.4157C52.4385 9.91576 51.4188 3.06814 47.9368 0.813612C44.5981 -1.34818 39.1378 0.905835 33.6232 6.29439C33.0929 6.81255 32.5612 7.36116 32.0296 7.93611C31.6754 7.55571 31.3218 7.1881 30.9691 6.83647C25.1897 1.07467 19.3967 -1.35343 15.9181 0.907625C12.5826 3.07569 11.5948 9.5131 12.9986 17.5686C13.1342 18.3466 13.2927 19.1412 13.4718 19.9491C12.652 20.2104 11.8605 20.489 11.1031 20.7854C4.32733 23.4378 0 27.5949 0 31.9068C0 36.3602 4.64539 40.8271 11.7029 43.5355C12.2599 43.7493 12.8378 43.9514 13.4333 44.1432C13.24 45.017 13.0719 45.8732 12.9307 46.7083C11.5922 54.624 12.6375 60.9093 15.9642 63.0637C19.4003 65.2886 25.1671 63.0017 30.7825 57.4903C31.2264 57.0547 31.6718 56.5926 32.118 56.1084C32.6964 56.7337 33.2738 57.3256 33.8482 57.8807C39.2874 63.1361 44.6595 65.2582 47.9831 63.0978C51.4158 60.8666 52.5314 54.1147 51.083 45.8998C50.9724 45.2724 50.8437 44.6315 50.6991 43.9791C51.1041 43.8447 51.5017 43.7059 51.8894 43.5616C59.2263 40.8322 64 36.4197 64 31.9068C64 27.5793 59.5331 23.3942 52.6208 20.7224ZM51.0295 40.6477C50.6796 40.7778 50.3205 40.9036 49.9546 41.0255C49.1446 38.1463 48.0514 35.0848 46.7137 31.9218C47.9903 28.834 49.0412 25.8117 49.8285 22.9512C50.4832 23.164 51.1186 23.3883 51.7309 23.6251C57.6533 25.9143 61.2659 29.2989 61.2659 31.9068C61.2659 34.6847 57.3644 38.2909 51.0295 40.6477ZM48.4009 46.496C49.0414 50.1285 49.1329 53.4127 48.7086 55.9801C48.3275 58.2871 47.5609 59.8252 46.6131 60.4412C44.5962 61.752 40.2829 60.0481 35.6313 55.5536C35.098 55.0384 34.5609 54.4883 34.0221 53.906C35.8254 51.6915 37.6277 49.1171 39.3867 46.258C42.4807 45.9497 45.4037 45.4457 48.0545 44.7577C48.1851 45.349 48.301 45.929 48.4009 46.496ZM21.819 60.2146C19.8485 60.996 18.279 61.0184 17.3303 60.4042C15.3115 59.0969 14.4723 54.0503 15.6171 47.2809C15.7482 46.5056 15.9043 45.7092 16.0841 44.8952C18.7059 45.5461 21.6075 46.0146 24.7088 46.2968C26.4797 49.0946 28.3341 51.6662 30.2028 53.9179C29.7945 54.3605 29.3878 54.7818 28.9834 55.1789C26.5003 57.6159 24.012 59.345 21.819 60.2146ZM12.5872 40.6307C9.46645 39.4331 6.88926 37.8766 5.12272 36.1781C3.53537 34.6517 2.73395 33.1364 2.73395 31.9068C2.73395 29.2902 6.20836 25.9526 12.0031 23.6842C12.7062 23.4089 13.4422 23.1495 14.2061 22.9058C15.0069 25.8309 16.0575 28.889 17.3253 31.9815C16.0411 35.1199 14.9756 38.2268 14.1669 41.1861C13.6223 41.0104 13.0948 40.8254 12.5872 40.6307ZM15.6818 16.979C14.479 10.0773 15.2778 4.87089 17.2879 3.56443C19.429 2.17265 24.1636 4.15703 29.1537 9.13206C29.4727 9.45004 29.7929 9.78286 30.1141 10.1272C28.2546 12.3691 26.4172 14.9214 24.662 17.7026C21.652 18.0159 18.7708 18.5191 16.1217 19.1929C15.9552 18.4407 15.8076 17.7016 15.6818 16.979ZM43.2885 24.633C42.6552 23.4048 42.0051 22.2057 41.3423 21.0393C43.3843 21.3291 45.3407 21.7138 47.178 22.1847C46.6264 24.1696 45.9389 26.2449 45.1296 28.3724C44.5491 27.1349 43.9351 25.8871 43.2885 24.633ZM32.0305 12.3211C33.2916 13.8551 34.5545 15.5678 35.7967 17.4261C34.545 17.3597 33.2777 17.3252 32 17.3252C30.7344 17.3252 29.4765 17.3589 28.2325 17.4242C29.4759 15.5832 30.7497 13.8728 32.0305 12.3211ZM20.7005 24.6542C20.0679 25.8859 19.4652 27.1268 18.8938 28.3701C18.0977 26.25 17.4165 24.1652 16.8601 22.1522C18.6862 21.6934 20.6334 21.3182 22.6624 21.0339C21.9903 22.211 21.3348 23.4193 20.7005 24.6542ZM22.7208 42.9987C20.6245 42.7361 18.648 42.3803 16.8224 41.9341C17.3877 39.8851 18.0839 37.7558 18.8969 35.5901C19.4698 36.8325 20.0748 38.0739 20.7113 39.3083C21.3596 40.5657 22.0314 41.7975 22.7208 42.9987ZM32.1062 51.7089C30.8103 50.1391 29.5178 48.4026 28.2555 46.5348C29.4809 46.5887 30.7303 46.6164 32 46.6164C33.3045 46.6164 34.5941 46.5834 35.8633 46.5199C34.6171 48.4214 33.3587 50.1606 32.1062 51.7089ZM45.1557 35.4797C46.0111 37.6689 46.7323 39.787 47.3048 41.8011C45.4492 42.2764 43.4457 42.6592 41.3348 42.9437C41.9991 41.7616 42.655 40.5418 43.2994 39.2872C43.9514 38.0178 44.5704 36.7465 45.1557 35.4797ZM40.9311 37.7535C39.9307 39.7012 38.9036 41.5605 37.8609 43.3155C35.9618 43.468 33.9997 43.5465 32 43.5465C30.0084 43.5465 28.071 43.4771 26.2055 43.3411C25.1208 41.5631 24.0713 39.6983 23.0773 37.7703C22.0858 35.8476 21.1736 33.9086 20.3468 31.9805C21.1734 30.0479 22.0835 28.1068 23.0692 26.1875L23.069 26.1879C24.0573 24.2635 25.0975 22.4078 26.1722 20.6408C28.0756 20.4793 30.0274 20.395 31.9999 20.395C33.9813 20.395 35.9357 20.4799 37.8385 20.6429C38.8968 22.3969 39.9299 24.2466 40.9221 26.1712C41.9257 28.1175 42.8475 30.0457 43.6812 31.9369C42.85 33.8605 41.9302 35.8082 40.9311 37.7535ZM46.5712 3.4731C48.7143 4.86079 49.5478 10.4573 48.2012 17.7961C48.1153 18.2644 48.0186 18.7414 47.9136 19.2247C45.2584 18.5368 42.3751 18.0249 39.3563 17.707C37.5978 14.8951 35.7754 12.3389 33.9462 10.1258C34.438 9.59458 34.9291 9.08806 35.4181 8.61006C40.1431 3.99318 44.5591 2.17035 46.5712 3.4731ZM32 25.49C35.1562 25.49 37.715 28.3628 37.715 31.9068C37.715 35.4507 35.1562 38.3236 32 38.3236C28.8438 38.3236 26.285 35.4507 26.285 31.9068C26.285 28.3628 28.8438 25.49 32 25.49Z" fill="#00D8FF"/>
</svg>
