<svg viewBox="0 0 64 64" fill="none" xmlns="http://www.w3.org/2000/svg">
<g clip-path="url(#clip0_61_129)">
<path d="M31.961 63.8384L5.91546 58.711L0.111328 12.5458H63.8887L58.0784 58.7037L31.961 63.8384Z" fill="#264DE4"/>
<path d="M53.1042 55.7645L58.0695 16.3204H32V59.9136L53.1042 55.7645Z" fill="#2965F1"/>
<path d="M13.4171 33.4424L14.1327 39.1043H32V33.4424H13.4171Z" fill="#EBEBEB"/>
<path d="M11.9792 21.9824L12.7051 27.6445H32V21.9824H11.9792Z" fill="#EBEBEB"/>
<path d="M32 48.1472L31.965 48.1538L23.0729 46.4511L22.5044 41.9354H14.4895L15.6081 50.8255L31.9633 54.0453L32 54.038V48.1472Z" fill="#EBEBEB"/>
<path d="M15.1208 0H24.7912V2.86774H19.1648V5.73547H24.7912V8.60321H15.1208V0Z" fill="white"/>
<path d="M26.7253 0H36.3957V2.49368H30.7693V2.99242H36.3957V8.72789H26.7253V6.10953H32.3517V5.61079H26.7253V0Z" fill="white"/>
<path d="M38.3297 0H48V2.49368H42.3737V2.99242H48V8.72789H38.3297V6.10953H43.9561V5.61079H38.3297V0Z" fill="white"/>
<path d="M50.5317 33.4424L51.9731 21.9824H31.9724V27.6445H43.2231L42.4965 33.4424H31.9724V39.1043H41.8041L40.8774 46.4475L31.9724 48.1519V54.0425L48.3406 50.8255L48.4607 49.8689L50.3369 34.9628L50.5317 33.4424Z" fill="white"/>
</g>
<defs>
<clipPath id="clip0_61_129">
<rect width="64" height="64" fill="white"/>
</clipPath>
</defs>
</svg>
