<svg viewBox="0 0 64 64" fill="none" xmlns="http://www.w3.org/2000/svg">
<g clip-path="url(#clip0_61_145)">
<path d="M63.88 46.2534C63.9086 45.9599 63.9293 45.6635 63.9453 45.3657C63.9646 45.0131 43.8046 24.8618 43.8046 24.8618H43.3226C43.3226 24.8618 63.7566 47.5689 63.88 46.2534Z" fill="url(#paint0_linear_61_145)"/>
<path d="M20.868 39.2632C20.8414 39.325 20.8147 39.3868 20.7874 39.4486C20.7587 39.5132 20.7294 39.5778 20.7 39.6417C20.0574 41.0534 29.6967 50.9809 30.472 49.775C30.5074 49.7216 30.5427 49.6654 30.578 49.612C30.6174 49.5488 30.656 49.4884 30.6947 49.4252C31.3147 48.4335 21.1434 38.6184 20.868 39.2632Z" fill="url(#paint1_linear_61_145)"/>
<path d="M34.4893 53.2234C34.462 53.2866 34.268 53.6321 34.0906 53.8148C34.0606 53.878 43.5006 63.7408 43.5006 63.7408H44.3506C44.3513 63.7408 35.4893 53.6406 34.4893 53.2234Z" fill="url(#paint2_linear_61_145)"/>
<path d="M63.9587 45.1866C63.5173 55.4969 55.4207 63.7408 45.5287 63.7408H44.1913L34.3127 53.4882C35.1253 52.2809 35.8807 51.03 36.5533 49.7258H45.5287C48.3673 49.7258 50.6773 47.2936 50.6773 44.3017C50.6773 41.3112 48.3673 38.8776 45.5287 38.8776H40.2173C40.622 36.6238 40.8433 34.2998 40.8433 31.9224C40.8433 29.5085 40.618 27.1514 40.1987 24.8618H43.498L63.9007 46.0407C63.9247 45.7569 63.944 45.4732 63.9587 45.1866ZM5.36667 0H0V14.015H5.36667C14.74 14.015 22.3667 22.0476 22.3667 31.9224C22.3667 34.6088 21.798 37.159 20.7873 39.4486L30.578 49.612C33.7927 44.5447 35.672 38.4611 35.672 31.9224C35.672 14.3205 22.0767 0 5.36667 0Z" fill="url(#paint3_linear_61_145)"/>
<path d="M45.5286 0H23.7966C29.1046 3.41404 33.5 8.25521 36.4946 14.015H45.5286C48.3673 14.015 50.6773 16.4472 50.6773 19.4391C50.6773 22.4304 48.3673 24.8626 45.5286 24.8626H43.4986L63.9013 46.0414C63.9493 45.4669 63.9793 44.8888 63.9793 44.3017C63.9793 39.5771 62.37 35.243 59.698 31.8697C62.37 28.4978 63.9793 24.163 63.9793 19.4391C63.9793 8.72086 55.7033 0 45.5286 0Z" fill="url(#paint4_linear_61_145)"/>
<path d="M44.1913 63.7409H23.952C28.026 61.0903 31.548 57.5912 34.3127 53.4882L44.1913 63.7409ZM30.578 49.6121L20.788 39.4486C18.0833 45.5722 12.1893 49.8312 5.36667 49.8312H0V63.8448H5.36667C15.8693 63.8448 25.1393 58.1854 30.578 49.6121Z" fill="url(#paint5_linear_61_145)"/>
</g>
<defs>
<linearGradient id="paint0_linear_61_145" x1="-1660.87" y1="-1965.81" x2="2343.94" y2="2142.49" gradientUnits="userSpaceOnUse">
<stop stop-color="#F9A03C"/>
<stop offset="1" stop-color="#F7974E"/>
</linearGradient>
<linearGradient id="paint1_linear_61_145" x1="-2582.2" y1="-2610.69" x2="1201.11" y2="874.334" gradientUnits="userSpaceOnUse">
<stop stop-color="#F9A03C"/>
<stop offset="1" stop-color="#F7974E"/>
</linearGradient>
<linearGradient id="paint2_linear_61_145" x1="-2255.57" y1="-2702" x2="1090.69" y2="1040.61" gradientUnits="userSpaceOnUse">
<stop stop-color="#F9A03C"/>
<stop offset="1" stop-color="#F7974E"/>
</linearGradient>
<linearGradient id="paint3_linear_61_145" x1="725.209" y1="-116.116" x2="5256.63" y2="5885.84" gradientUnits="userSpaceOnUse">
<stop stop-color="#F26D58"/>
<stop offset="1" stop-color="#F9A03C"/>
</linearGradient>
<linearGradient id="paint4_linear_61_145" x1="660.437" y1="177.629" x2="5175.23" y2="2766.73" gradientUnits="userSpaceOnUse">
<stop stop-color="#B84E51"/>
<stop offset="1" stop-color="#F68E48"/>
</linearGradient>
<linearGradient id="paint5_linear_61_145" x1="2076.29" y1="611.94" x2="2142.32" y2="3638.51" gradientUnits="userSpaceOnUse">
<stop stop-color="#F9A03C"/>
<stop offset="1" stop-color="#F7974E"/>
</linearGradient>
<clipPath id="clip0_61_145">
<rect width="64" height="64" fill="white"/>
</clipPath>
</defs>
</svg>
