<svg viewBox="0 0 280 280" fill="none" xmlns="http://www.w3.org/2000/svg">
<path fill-rule="evenodd" clip-rule="evenodd" d="M117.654 0.923595C100.251 4.44542 90.3865 7.46042 80.1309 12.3908C73.8799 15.3958 60.0036 23.4611 58.0102 25.2475C57.3704 25.8213 55.3461 27.3938 53.5117 28.7424C51.6773 30.0919 45.8033 35.4901 40.4571 40.7384C20.9835 59.86 8.47868 82.8124 2.03582 111.262C-0.246418 121.342 -0.545319 154.199 1.54199 165.634C4.74992 183.214 12.2774 201.72 22.528 217.227C28.7919 226.705 29.6736 227.743 41.2008 239.262C61.8759 259.921 86.3398 272.618 115.327 277.735C139.712 282.039 169.538 279.22 190.13 270.667C201.165 266.083 216.662 257.981 218.621 255.772C218.896 255.462 221.145 253.861 223.619 252.212C226.093 250.565 232.857 244.493 238.651 238.72C265.828 211.637 279.601 178.104 279.601 139.015C279.601 100.164 265.397 66.7047 237.266 39.2858C215.378 17.9529 190.755 5.64802 160.14 0.745654C153.388 -0.335987 123.254 -0.210028 117.654 0.923595Z" fill="#AAAAFF"/>
<path fill-rule="evenodd" clip-rule="evenodd" d="M116.905 1.27149C114.018 1.95326 111.656 2.26116 111.656 1.95526C111.656 1.64937 111.152 1.90328 110.535 2.52008C109.918 3.13687 108.871 3.43377 108.209 3.17886C107.545 2.92494 105.688 3.25483 104.081 3.91361C102.474 4.57139 100.035 5.28716 98.6607 5.50409C95.5827 5.98992 83.6247 10.6504 81.9163 12.0299C81.2295 12.5857 80.6667 12.7267 80.6667 12.3448C80.6667 11.9629 79.4891 12.5757 78.0496 13.7084C76.611 14.84 75.0876 15.5527 74.6647 15.2908C74.2418 15.0299 73.3401 15.4858 72.6604 16.3045C71.9806 17.1232 71.0369 17.793 70.5631 17.793C69.1415 17.793 59.3068 24.0439 57.4244 26.1442C56.4617 27.2179 55.675 27.8177 55.675 27.4788C55.675 25.3875 29.3188 51.8797 26.6177 56.6851C25.3521 58.9363 23.9505 60.7787 23.5017 60.7787C23.0528 60.7787 22.686 61.4535 22.686 62.2782C22.686 63.1029 22.2361 63.7777 21.6863 63.7777C21.1365 63.7777 20.6866 64.4525 20.6866 65.2772C20.6866 66.1019 20.2098 66.7767 19.628 66.7767C19.0462 66.7767 18.8472 67.2266 19.1871 67.7764C19.527 68.3262 19.3021 68.7761 18.6873 68.7761C18.0725 68.7761 17.8476 69.2259 18.1875 69.7757C18.5273 70.3255 18.4374 70.7754 17.9875 70.7754C16.9079 70.7754 14.6316 74.4732 14.1408 77.0233C13.9259 78.1359 13.1261 79.7724 12.3614 80.6591C11.5976 81.5458 10.7279 83.1713 10.43 84.2709C10.1311 85.3705 8.51867 89.981 6.84523 94.5175C5.17278 99.053 3.95819 102.765 4.14812 102.765C4.33706 102.765 3.59231 106.027 2.49167 110.012C0.87721 115.858 0.418362 121.174 0.115463 137.503C-0.134454 151.034 0.0844734 157.747 0.776244 157.747C1.34505 157.747 1.57598 158.127 1.28807 158.592C0.838223 159.32 1.24109 162.401 3.07148 172.242C3.9052 176.721 5.02283 180.309 5.95152 181.489C6.49334 182.176 6.64429 182.738 6.28841 182.738C5.93153 182.738 6.30841 184.031 7.12513 185.61C7.94286 187.19 8.32873 188.764 7.98385 189.109C7.63996 189.454 7.90887 189.736 8.58265 189.736C9.25643 189.736 9.55932 190.139 9.25442 190.632C8.95053 191.124 9.37039 192.811 10.1891 194.38C11.0078 195.95 11.6796 197.796 11.6836 198.483C11.6866 199.171 12.0875 199.733 12.5723 199.733C13.3931 199.733 15.0005 203.405 14.8286 204.885C14.7866 205.245 15.4134 206.086 16.2201 206.757C17.0268 207.427 17.6876 208.595 17.6876 209.351C17.6876 210.109 18.0855 210.729 18.5703 210.729C19.0562 210.729 19.7379 211.516 20.0858 212.478C21.1035 215.293 23.2368 218.619 25.72 221.262C26.9925 222.617 27.7263 223.725 27.3514 223.725C25.726 223.725 45.7223 244.364 52.676 249.864C77.6047 269.582 107.504 279.716 140.647 279.681C158.346 279.662 176.386 276.376 190.13 270.667C201.165 266.083 216.662 257.981 218.621 255.772C218.896 255.462 221.145 253.861 223.619 252.212C230.513 247.621 248.502 229.116 254.227 220.726C265.515 204.183 274.175 184.183 276.686 168.856C277.281 165.22 278.18 160.359 278.685 158.053C280.098 151.587 279.775 126.24 278.163 117.26C276.163 106.11 271.326 89.917 267.624 81.9697C264.642 75.5698 256.828 61.8294 255.574 60.7787C255.246 60.5038 253.475 58.0296 251.641 55.2805C248.724 50.909 239.185 40.9913 228.487 31.2075C226.634 29.5131 223.094 26.814 220.62 25.2095C218.146 23.6041 215.972 21.9546 215.789 21.5418C215.605 21.1289 214.887 20.792 214.192 20.792C213.498 20.792 211.891 19.8923 210.624 18.7927C209.356 17.693 207.712 16.7933 206.972 16.7933C206.231 16.7933 205.625 16.3435 205.625 15.7937C205.625 15.2438 205.04 14.794 204.325 14.794C202.426 14.794 197.645 12.4298 197.636 11.4861C197.632 11.0412 197.158 10.9673 196.584 11.3222C196.01 11.677 194.999 11.5421 194.335 11.0223C192.727 9.76167 183.333 6.25084 182.383 6.55574C181.971 6.68869 181.633 6.29882 181.633 5.69002C181.633 5.08123 181.002 4.82531 180.232 5.12121C179.461 5.41711 178.523 5.35313 178.148 4.97826C177.774 4.60338 177.168 4.2625 176.802 4.21951C176.435 4.17753 174.56 3.81365 172.636 3.41178C170.712 3.01091 168.238 2.51708 167.138 2.31614C166.038 2.11521 165.026 1.8603 164.889 1.75033C162.907 0.152863 123.311 -0.242006 116.905 1.27149ZM118.195 79.8394C119.221 81.4988 118.3 81.7288 116.866 80.1713C116.156 79.4025 116.017 78.7727 116.557 78.7727C117.096 78.7727 117.833 79.2526 118.195 79.8394ZM166.888 79.4345C166.201 79.7124 165.077 79.7124 164.389 79.4345C163.702 79.1576 164.264 78.9307 165.638 78.9307C167.013 78.9307 167.576 79.1576 166.888 79.4345ZM172.365 80.3762C172.033 80.7081 171.171 80.7441 170.45 80.4552C169.652 80.1363 169.889 79.8994 171.054 79.8514C172.107 79.8084 172.697 80.0443 172.365 80.3762ZM119.154 83.7711C118.814 84.3209 117.775 84.7388 116.846 84.7008C115.467 84.6428 115.525 84.4718 117.155 83.7711C119.83 82.6215 119.865 82.6215 119.154 83.7711ZM188.19 86.3252C190.019 87.7917 189.987 87.8117 187.631 86.6901C184.571 85.2326 184.004 84.7707 185.274 84.7707C185.811 84.7707 187.122 85.4705 188.19 86.3252ZM93.5794 86.1353C93.3505 86.3352 92.0379 87.035 90.6634 87.6898C88.3072 88.8114 88.2752 88.7914 90.1046 87.3249C91.697 86.0493 94.951 84.9347 93.5794 86.1353ZM109.657 86.7701C108.832 87.3029 107.708 87.7388 107.158 87.7388C106.608 87.7388 106.833 87.3029 107.658 86.7701C108.482 86.2373 109.607 85.8014 110.157 85.8014C110.707 85.8014 110.482 86.2373 109.657 86.7701ZM127.901 87.4319C127.214 87.7098 126.09 87.7098 125.402 87.4319C124.715 87.155 125.277 86.928 126.651 86.928C128.026 86.928 128.589 87.155 127.901 87.4319ZM154.892 87.4319C154.205 87.7098 153.081 87.7098 152.393 87.4319C151.706 87.155 152.268 86.928 153.642 86.928C155.017 86.928 155.58 87.155 154.892 87.4319ZM120.903 88.4315C120.217 88.7094 119.092 88.7094 118.404 88.4315C117.717 88.1546 118.279 87.9277 119.654 87.9277C121.028 87.9277 121.591 88.1546 120.903 88.4315ZM161.89 88.4315C161.203 88.7094 160.078 88.7094 159.391 88.4315C158.704 88.1546 159.266 87.9277 160.64 87.9277C162.015 87.9277 162.577 88.1546 161.89 88.4315ZM102.659 89.2343C102.659 89.4892 101.647 90.1889 100.41 90.7887C98.2499 91.8354 98.2379 91.8174 100.101 90.3239C102.141 88.6904 102.659 88.4695 102.659 89.2343ZM108.386 91.3725C108.055 91.7044 107.192 91.7404 106.471 91.4515C105.673 91.1326 105.91 90.8957 107.075 90.8477C108.129 90.8047 108.718 91.0407 108.386 91.3725ZM97.6611 92.2333C97.6611 92.4882 96.6484 93.1879 95.4118 93.7877C93.2515 94.8344 93.2395 94.8164 95.1029 93.3229C97.1422 91.6894 97.6611 91.4685 97.6611 92.2333ZM178.127 92.7571C178.477 93.3229 178.076 93.4909 177.187 93.15C175.455 92.4852 175.138 91.7684 176.576 91.7684C177.094 91.7684 177.791 92.2133 178.127 92.7571ZM99.6604 94.1606C99.6604 94.3765 98.9626 94.8214 98.1089 95.1493C97.2192 95.4902 96.8183 95.3222 97.1682 94.7564C97.755 93.8057 99.6604 93.3509 99.6604 94.1606ZM92.3298 96.2229C92.3298 97.0237 91.9549 97.4465 91.4961 97.1636C91.0383 96.8807 90.6634 97.2006 90.6634 97.8744C90.6634 98.5482 90.3745 98.8101 90.0206 98.4572C89.6677 98.1033 89.9476 97.1286 90.6434 96.2909C92.2039 94.4105 92.3298 94.4055 92.3298 96.2229ZM88.664 98.7661C88.664 99.3159 88.1872 99.7658 87.6054 99.7658C87.0236 99.7658 86.8247 99.3159 87.1645 98.7661C87.5044 98.2163 87.9803 97.7664 88.2232 97.7664C88.4661 97.7664 88.664 98.2163 88.664 98.7661ZM193.629 99.2659C194.347 100.131 194.444 100.765 193.858 100.765C193.3 100.765 192.585 100.091 192.268 99.2659C191.952 98.4412 191.849 97.7664 192.039 97.7664C192.229 97.7664 192.944 98.4412 193.629 99.2659ZM165.888 132.417C165.202 132.695 164.077 132.695 163.389 132.417C162.702 132.14 163.264 131.913 164.639 131.913C166.013 131.913 166.576 132.14 165.888 132.417ZM63.3554 134.942C63.0366 135.739 62.7996 135.502 62.7517 134.337C62.7087 133.284 62.9446 132.694 63.2765 133.026C63.6084 133.358 63.6444 134.22 63.3554 134.942ZM173.136 135.754C174.131 136.853 174.72 137.753 174.446 137.753C174.171 137.753 173.131 136.853 172.136 135.754C171.142 134.654 170.552 133.754 170.827 133.754C171.102 133.754 172.141 134.654 173.136 135.754ZM108.657 135.132C108.657 135.339 107.871 136.127 106.908 136.881C105.323 138.124 105.288 138.089 106.53 136.504C107.837 134.838 108.657 134.309 108.657 135.132ZM103.321 146C103.044 146.688 102.817 146.125 102.817 144.751C102.817 143.376 103.044 142.814 103.321 143.501C103.599 144.189 103.599 145.314 103.321 146ZM128.358 149.987C128.119 151.231 127.914 150.449 127.903 148.25C127.892 146.05 128.088 145.033 128.338 145.988C128.588 146.944 128.597 148.744 128.358 149.987ZM60.3564 148.937C60.0376 149.734 59.8006 149.497 59.7526 148.333C59.7097 147.279 59.9456 146.689 60.2775 147.021C60.6094 147.353 60.6453 148.216 60.3564 148.937ZM103.321 150.999C103.044 151.687 102.817 151.124 102.817 149.749C102.817 148.375 103.044 147.813 103.321 148.5C103.599 149.187 103.599 150.312 103.321 150.999ZM59.3358 155.997C59.0589 156.685 58.8319 156.122 58.8319 154.747C58.8319 153.373 59.0589 152.811 59.3358 153.498C59.6137 154.186 59.6137 155.31 59.3358 155.997ZM107.658 158.246C108.949 159.621 109.781 160.746 109.506 160.746C109.231 160.746 107.95 159.621 106.658 158.246C105.366 156.872 104.535 155.747 104.81 155.747C105.085 155.747 106.366 156.872 107.658 158.246ZM125.652 157.092C125.652 157.282 124.64 158.293 123.402 159.341L121.153 161.245L123.058 158.996C124.847 156.883 125.652 156.292 125.652 157.092ZM221.303 158.934C220.984 159.731 220.747 159.494 220.699 158.329C220.656 157.276 220.892 156.686 221.224 157.018C221.556 157.35 221.592 158.212 221.303 158.934ZM58.3361 163.994C58.0592 164.682 57.8323 164.119 57.8323 162.745C57.8323 161.37 58.0592 160.808 58.3361 161.495C58.614 162.183 58.614 163.308 58.3361 163.994ZM222.303 166.931C221.984 167.728 221.747 167.491 221.699 166.327C221.656 165.273 221.892 164.683 222.224 165.015C222.556 165.347 222.592 166.21 222.303 166.931ZM57.3365 174.991C57.0595 175.679 56.8326 175.116 56.8326 173.741C56.8326 172.367 57.0595 171.805 57.3365 172.492C57.6144 173.179 57.6144 174.304 57.3365 174.991ZM86.6647 175.776C86.6647 177.196 86.1859 176.978 84.0706 174.595C82.1762 172.462 82.1782 172.457 84.4155 173.631C85.652 174.28 86.6647 175.246 86.6647 175.776ZM219.487 181.125L215.155 185.237L218.888 181.197C220.94 178.974 222.672 176.275 222.735 175.199C222.845 173.341 222.876 173.337 223.334 175.127C223.667 176.421 222.463 178.299 219.487 181.125ZM91.856 178.509C91.1932 178.73 90.9653 179.434 91.3491 180.074C91.733 180.715 91.2912 180.626 90.3665 179.876C88.3451 178.237 89.0559 176.57 91.3941 177.467C92.4578 177.875 92.6247 178.253 91.856 178.509ZM192.629 177.118C192.629 177.325 191.843 178.113 190.88 178.867C189.295 180.11 189.26 180.075 190.502 178.49C191.809 176.824 192.629 176.295 192.629 177.118ZM61.1732 181.739C63.3205 183.938 64.853 185.737 64.578 185.737C64.3031 185.737 62.3208 183.938 60.1735 181.739C58.0262 179.539 56.4937 177.74 56.7686 177.74C57.0435 177.74 59.0259 179.539 61.1732 181.739ZM94.79 182.488C96.0326 184.074 95.9976 184.109 94.4121 182.866C92.7467 181.56 92.2179 180.739 93.0406 180.739C93.2475 180.739 94.0353 181.526 94.79 182.488ZM67.799 187.487C69.0416 189.072 69.0066 189.107 67.4211 187.865C65.7557 186.558 65.2268 185.737 66.0496 185.737C66.2565 185.737 67.0442 186.524 67.799 187.487ZM128.92 188.392C128.243 188.666 126.893 188.683 125.921 188.429C124.948 188.175 125.502 187.951 127.151 187.931C128.801 187.911 129.596 188.118 128.92 188.392ZM152.893 188.398C152.206 188.676 151.081 188.676 150.394 188.398C149.707 188.121 150.269 187.894 151.643 187.894C153.018 187.894 153.58 188.121 152.893 188.398ZM171.764 196.484C173.007 198.069 172.972 198.104 171.387 196.862C169.721 195.555 169.192 194.734 170.015 194.734C170.222 194.734 171.01 195.521 171.764 196.484ZM107.658 199.233C106.973 200.057 105.232 200.671 103.787 200.596L101.16 200.46L103.659 200.011C105.034 199.765 106.585 199.152 107.108 198.648C108.63 197.181 109.018 197.593 107.658 199.233Z" fill="#8080BF"/>
<path fill-rule="evenodd" clip-rule="evenodd" d="M116.905 1.27149C114.018 1.95326 111.656 2.26116 111.656 1.95526C111.656 1.64937 111.152 1.90328 110.535 2.52008C109.918 3.13687 108.871 3.43377 108.209 3.17886C107.545 2.92494 105.688 3.25483 104.081 3.91361C102.474 4.57139 100.035 5.28716 98.6607 5.50409C95.5827 5.98992 83.6247 10.6504 81.9163 12.0299C81.2295 12.5857 80.6667 12.7267 80.6667 12.3448C80.6667 11.9629 79.4891 12.5757 78.0496 13.7084C76.611 14.84 75.0876 15.5527 74.6647 15.2908C74.2418 15.0299 73.3401 15.4858 72.6604 16.3045C71.9806 17.1232 71.0369 17.793 70.5631 17.793C69.1415 17.793 59.3068 24.0439 57.4244 26.1442C56.4617 27.2179 55.675 27.8177 55.675 27.4788C55.675 25.3875 29.3188 51.8797 26.6177 56.6851C25.3521 58.9363 23.9505 60.7787 23.5017 60.7787C23.0528 60.7787 22.686 61.4535 22.686 62.2782C22.686 63.1029 22.2361 63.7777 21.6863 63.7777C21.1365 63.7777 20.6866 64.4525 20.6866 65.2772C20.6866 66.1019 20.2098 66.7767 19.628 66.7767C19.0462 66.7767 18.8472 67.2266 19.1871 67.7764C19.527 68.3262 19.3021 68.7761 18.6873 68.7761C18.0725 68.7761 17.8476 69.2259 18.1875 69.7757C18.5273 70.3255 18.4374 70.7754 17.9875 70.7754C16.9079 70.7754 14.6316 74.4732 14.1408 77.0233C13.9259 78.1359 13.1261 79.7724 12.3614 80.6591C11.5976 81.5458 10.7279 83.1713 10.43 84.2709C10.1311 85.3705 8.51867 89.981 6.84523 94.5175C5.17278 99.053 3.95819 102.765 4.14812 102.765C4.33706 102.765 3.59231 106.027 2.49167 110.012C0.87721 115.858 0.418362 121.174 0.115463 137.503C-0.134454 151.034 0.0844734 157.746 0.776244 157.746C1.34505 157.746 1.57598 158.127 1.28807 158.592C0.838223 159.32 1.24109 162.401 3.07148 172.242C3.9052 176.721 5.02283 180.309 5.95152 181.489C6.49334 182.176 6.64429 182.738 6.28841 182.738C5.93153 182.738 6.30841 184.031 7.12513 185.61C7.94286 187.19 8.32873 188.764 7.98385 189.109C7.63996 189.454 7.90887 189.736 8.58265 189.736C9.25643 189.736 9.55932 190.139 9.25442 190.632C8.95053 191.124 9.37039 192.811 10.1891 194.38C11.0078 195.95 11.6796 197.796 11.6836 198.483C11.6866 199.171 12.0875 199.733 12.5723 199.733C13.3931 199.733 15.0005 203.405 14.8286 204.885C14.7866 205.245 15.4134 206.086 16.2201 206.757C17.0268 207.427 17.6876 208.595 17.6876 209.351C17.6876 210.109 18.0855 210.729 18.5703 210.729C19.0562 210.729 19.7379 211.516 20.0858 212.478C21.1035 215.293 23.2368 218.619 25.72 221.262C26.9925 222.617 27.7263 223.725 27.3514 223.725C25.7369 223.725 44.7896 243.447 51.6763 248.905C78.3085 270.012 107.673 280.009 141.977 279.646C149.583 279.566 157.23 279.128 158.972 278.673C160.714 278.218 163.714 277.605 165.638 277.308C180.36 275.044 201.241 267.144 212.423 259.61C214.787 258.017 217.111 256.714 217.588 256.714C218.064 256.714 218.604 256.376 218.788 255.964C218.971 255.551 221.145 253.865 223.619 252.215C230.565 247.585 248.535 229.072 254.185 220.724C265.567 203.912 274.219 183.949 276.701 168.773C277.288 165.182 278.18 160.359 278.685 158.053C280.098 151.587 279.775 126.24 278.163 117.26C276.163 106.11 271.326 89.917 267.624 81.9697C264.642 75.5698 256.828 61.8294 255.574 60.7787C255.246 60.5038 253.475 58.0296 251.641 55.2805C248.724 50.909 239.185 40.9913 228.487 31.2075C226.634 29.5131 223.094 26.814 220.62 25.2095C218.146 23.6041 215.972 21.9546 215.789 21.5418C215.605 21.1289 214.887 20.792 214.192 20.792C213.498 20.792 211.891 19.8923 210.624 18.7927C209.356 17.693 207.712 16.7933 206.972 16.7933C206.231 16.7933 205.625 16.3435 205.625 15.7937C205.625 15.2438 205.04 14.794 204.325 14.794C202.426 14.794 197.645 12.4298 197.636 11.4861C197.632 11.0412 197.158 10.9673 196.584 11.3222C196.01 11.677 194.999 11.5421 194.335 11.0223C192.727 9.76167 183.333 6.25084 182.383 6.55574C181.971 6.68869 181.633 6.29882 181.633 5.69002C181.633 5.08122 181.002 4.82531 180.232 5.12121C179.461 5.41711 178.523 5.35313 178.148 4.97826C177.774 4.60338 177.168 4.2625 176.802 4.21951C176.435 4.17753 174.56 3.81365 172.636 3.41178C170.712 3.01091 168.238 2.51708 167.138 2.31614C166.038 2.11521 165.026 1.8603 164.889 1.75033C162.907 0.152863 123.311 -0.242006 116.905 1.27149ZM118.195 79.8394C119.221 81.4988 118.3 81.7288 116.866 80.1713C116.156 79.4025 116.017 78.7727 116.557 78.7727C117.096 78.7727 117.833 79.2526 118.195 79.8394ZM166.888 79.4345C166.201 79.7124 165.077 79.7124 164.389 79.4345C163.702 79.1576 164.264 78.9307 165.638 78.9307C167.013 78.9307 167.576 79.1576 166.888 79.4345ZM172.365 80.3762C172.033 80.7081 171.171 80.7441 170.45 80.4552C169.652 80.1363 169.889 79.8994 171.054 79.8514C172.107 79.8084 172.697 80.0443 172.365 80.3762ZM119.154 83.7711C118.814 84.3209 117.775 84.7387 116.846 84.7008C115.467 84.6428 115.525 84.4718 117.155 83.7711C119.83 82.6215 119.865 82.6215 119.154 83.7711ZM188.19 86.3252C190.019 87.7917 189.987 87.8117 187.631 86.6901C184.571 85.2326 184.004 84.7707 185.274 84.7707C185.811 84.7707 187.122 85.4705 188.19 86.3252ZM93.5794 86.1353C93.3505 86.3352 92.0379 87.035 90.6634 87.6898C88.3072 88.8114 88.2752 88.7914 90.1046 87.3249C91.697 86.0493 94.951 84.9347 93.5794 86.1353ZM109.657 86.7701C108.832 87.3029 107.708 87.7388 107.158 87.7388C106.608 87.7388 106.833 87.3029 107.658 86.7701C108.482 86.2373 109.607 85.8014 110.157 85.8014C110.707 85.8014 110.482 86.2373 109.657 86.7701ZM127.901 87.4319C127.214 87.7098 126.09 87.7098 125.402 87.4319C124.715 87.1549 125.277 86.928 126.651 86.928C128.026 86.928 128.589 87.1549 127.901 87.4319ZM154.892 87.4319C154.205 87.7098 153.081 87.7098 152.393 87.4319C151.706 87.1549 152.268 86.928 153.642 86.928C155.017 86.928 155.58 87.1549 154.892 87.4319ZM120.903 88.4315C120.217 88.7094 119.092 88.7094 118.404 88.4315C117.717 88.1546 118.279 87.9277 119.654 87.9277C121.028 87.9277 121.591 88.1546 120.903 88.4315ZM161.89 88.4315C161.203 88.7094 160.078 88.7094 159.391 88.4315C158.704 88.1546 159.266 87.9277 160.64 87.9277C162.015 87.9277 162.577 88.1546 161.89 88.4315ZM102.659 89.2343C102.659 89.4892 101.647 90.1889 100.41 90.7887C98.2499 91.8354 98.2379 91.8174 100.101 90.3239C102.141 88.6904 102.659 88.4695 102.659 89.2343ZM108.386 91.3725C108.055 91.7044 107.192 91.7404 106.471 91.4515C105.673 91.1326 105.91 90.8957 107.075 90.8477C108.129 90.8047 108.718 91.0407 108.386 91.3725ZM97.6611 92.2333C97.6611 92.4882 96.6484 93.1879 95.4118 93.7877C93.2515 94.8344 93.2395 94.8164 95.1029 93.3229C97.1422 91.6894 97.6611 91.4685 97.6611 92.2333ZM178.127 92.7571C178.477 93.3229 178.076 93.4908 177.187 93.15C175.455 92.4852 175.138 91.7684 176.576 91.7684C177.094 91.7684 177.791 92.2133 178.127 92.7571ZM99.6604 94.1606C99.6604 94.3765 98.9626 94.8214 98.1089 95.1493C97.2192 95.4902 96.8183 95.3222 97.1682 94.7564C97.755 93.8057 99.6604 93.3509 99.6604 94.1606ZM92.3298 96.2229C92.3298 97.0237 91.9549 97.4465 91.4961 97.1636C91.0383 96.8807 90.6634 97.2006 90.6634 97.8744C90.6634 98.5482 90.3745 98.8101 90.0206 98.4572C89.6677 98.1033 89.9476 97.1286 90.6434 96.2909C92.2039 94.4105 92.3298 94.4055 92.3298 96.2229ZM88.664 98.7661C88.664 99.3159 88.1872 99.7658 87.6054 99.7658C87.0236 99.7658 86.8247 99.3159 87.1645 98.7661C87.5044 98.2163 87.9803 97.7664 88.2232 97.7664C88.4661 97.7664 88.664 98.2163 88.664 98.7661ZM193.629 99.2659C194.347 100.131 194.444 100.765 193.858 100.765C193.3 100.765 192.585 100.091 192.268 99.2659C191.952 98.4412 191.849 97.7664 192.039 97.7664C192.229 97.7664 192.944 98.4412 193.629 99.2659ZM165.888 132.417C165.202 132.695 164.077 132.695 163.389 132.417C162.702 132.14 163.264 131.913 164.639 131.913C166.013 131.913 166.576 132.14 165.888 132.417ZM63.3554 134.942C63.0366 135.739 62.7996 135.502 62.7517 134.337C62.7087 133.284 62.9446 132.694 63.2765 133.026C63.6084 133.358 63.6444 134.22 63.3554 134.942ZM173.136 135.754C174.131 136.853 174.72 137.753 174.446 137.753C174.171 137.753 173.131 136.853 172.136 135.754C171.142 134.654 170.552 133.754 170.827 133.754C171.102 133.754 172.141 134.654 173.136 135.754ZM108.657 135.132C108.657 135.339 107.871 136.127 106.908 136.881C105.323 138.124 105.288 138.089 106.53 136.504C107.837 134.838 108.657 134.309 108.657 135.132ZM103.321 146C103.044 146.688 102.817 146.125 102.817 144.751C102.817 143.376 103.044 142.814 103.321 143.501C103.599 144.189 103.599 145.314 103.321 146ZM128.358 149.987C128.119 151.231 127.914 150.449 127.903 148.25C127.892 146.05 128.088 145.033 128.338 145.988C128.588 146.944 128.597 148.743 128.358 149.987ZM60.3564 148.937C60.0376 149.734 59.8006 149.497 59.7526 148.333C59.7097 147.279 59.9456 146.689 60.2775 147.021C60.6094 147.353 60.6453 148.216 60.3564 148.937ZM103.321 150.999C103.044 151.687 102.817 151.124 102.817 149.749C102.817 148.375 103.044 147.813 103.321 148.5C103.599 149.187 103.599 150.312 103.321 150.999ZM59.3358 155.997C59.0589 156.685 58.8319 156.122 58.8319 154.747C58.8319 153.373 59.0589 152.811 59.3358 153.498C59.6137 154.186 59.6137 155.31 59.3358 155.997ZM107.658 158.246C108.949 159.621 109.781 160.745 109.506 160.745C109.231 160.745 107.95 159.621 106.658 158.246C105.366 156.872 104.535 155.747 104.81 155.747C105.085 155.747 106.366 156.872 107.658 158.246ZM125.652 157.092C125.652 157.282 124.64 158.293 123.402 159.341L121.153 161.245L123.058 158.996C124.847 156.883 125.652 156.292 125.652 157.092ZM221.303 158.934C220.984 159.731 220.747 159.494 220.699 158.329C220.656 157.276 220.892 156.686 221.224 157.018C221.556 157.35 221.592 158.212 221.303 158.934ZM58.3361 163.994C58.0592 164.682 57.8323 164.119 57.8323 162.745C57.8323 161.37 58.0592 160.808 58.3361 161.495C58.614 162.183 58.614 163.308 58.3361 163.994ZM222.303 166.931C221.984 167.728 221.747 167.491 221.699 166.327C221.656 165.273 221.892 164.683 222.224 165.015C222.556 165.347 222.592 166.21 222.303 166.931ZM57.3365 174.991C57.0595 175.679 56.8326 175.116 56.8326 173.741C56.8326 172.367 57.0595 171.805 57.3365 172.492C57.6144 173.179 57.6144 174.304 57.3365 174.991ZM86.6647 175.776C86.6647 177.196 86.1859 176.978 84.0706 174.595C82.1762 172.462 82.1782 172.457 84.4155 173.631C85.652 174.28 86.6647 175.246 86.6647 175.776ZM219.487 181.125L215.155 185.237L218.888 181.197C220.94 178.974 222.672 176.275 222.735 175.199C222.845 173.341 222.876 173.337 223.334 175.127C223.667 176.421 222.463 178.299 219.487 181.125ZM91.856 178.509C91.1932 178.73 90.9653 179.434 91.3491 180.074C91.733 180.715 91.2912 180.626 90.3665 179.876C88.3451 178.237 89.0559 176.57 91.3941 177.467C92.4578 177.875 92.6247 178.253 91.856 178.509ZM192.629 177.118C192.629 177.325 191.843 178.113 190.88 178.867C189.295 180.11 189.26 180.075 190.502 178.49C191.809 176.824 192.629 176.295 192.629 177.118ZM61.1732 181.739C63.3205 183.938 64.853 185.737 64.578 185.737C64.3031 185.737 62.3208 183.938 60.1735 181.739C58.0262 179.539 56.4937 177.74 56.7686 177.74C57.0435 177.74 59.0259 179.539 61.1732 181.739ZM94.79 182.488C96.0326 184.074 95.9976 184.109 94.4121 182.866C92.7467 181.56 92.2179 180.739 93.0406 180.739C93.2475 180.739 94.0353 181.526 94.79 182.488ZM67.799 187.487C69.0416 189.072 69.0066 189.107 67.4211 187.864C65.7557 186.558 65.2268 185.737 66.0496 185.737C66.2565 185.737 67.0442 186.524 67.799 187.487ZM128.92 188.392C128.243 188.666 126.893 188.683 125.921 188.429C124.948 188.175 125.502 187.951 127.151 187.931C128.801 187.911 129.596 188.118 128.92 188.392ZM152.893 188.398C152.206 188.676 151.081 188.676 150.394 188.398C149.707 188.121 150.269 187.894 151.643 187.894C153.018 187.894 153.58 188.121 152.893 188.398ZM171.764 196.484C173.007 198.069 172.972 198.104 171.387 196.861C169.721 195.555 169.192 194.734 170.015 194.734C170.222 194.734 171.01 195.521 171.764 196.484ZM107.658 199.233C106.973 200.057 105.232 200.671 103.787 200.596L101.16 200.46L103.659 200.011C105.034 199.765 106.585 199.152 107.108 198.648C108.63 197.181 109.018 197.593 107.658 199.233Z" fill="#0000FF"/>
<path fill-rule="evenodd" clip-rule="evenodd" d="M116.905 1.27149C114.018 1.95326 111.656 2.26116 111.656 1.95526C111.656 1.64937 111.152 1.90328 110.535 2.52008C109.918 3.13687 108.871 3.43377 108.209 3.17886C107.545 2.92494 105.688 3.25383 104.081 3.90961C102.474 4.5664 100.285 5.26916 99.2175 5.4731C95.9106 6.10289 83.3068 10.8483 81.9513 11.9739C81.2445 12.5597 80.6667 12.7267 80.6667 12.3448C80.6667 11.9629 79.4891 12.5757 78.0496 13.7084C76.6111 14.84 75.0876 15.5527 74.6647 15.2908C74.2418 15.0299 73.3401 15.4858 72.6604 16.3045C71.9806 17.1232 71.0369 17.793 70.5631 17.793C69.1415 17.793 59.3068 24.0439 57.4244 26.1442C56.4617 27.2179 55.675 27.8177 55.675 27.4788C55.675 25.5534 31.731 49.3895 27.6373 55.3905C25.8029 58.0786 23.9385 60.4288 23.4937 60.6118C23.0498 60.7957 22.686 61.5824 22.686 62.3612C22.686 63.1399 22.2361 63.7777 21.6863 63.7777C21.1365 63.7777 20.6866 64.4525 20.6866 65.2772C20.6866 66.1019 20.2098 66.7767 19.628 66.7767C19.0462 66.7767 18.8472 67.2266 19.1871 67.7764C19.527 68.3262 19.3021 68.7761 18.6873 68.7761C18.0725 68.7761 17.8476 69.2259 18.1875 69.7757C18.5273 70.3255 18.4374 70.7754 17.9875 70.7754C16.9079 70.7754 14.6316 74.4732 14.1408 77.0233C13.9259 78.1359 13.1261 79.7724 12.3614 80.6591C11.5976 81.5458 10.7229 83.1713 10.418 84.2709C10.1141 85.3705 8.87655 88.9693 7.66795 92.2682C1.94585 107.887 0.407367 117.152 0.0734775 138.003C-0.136453 151.058 0.104467 157.746 0.783242 157.746C1.34905 157.746 1.57598 158.127 1.28807 158.592C0.838224 159.32 1.24109 162.401 3.07148 172.242C3.9052 176.721 5.02283 180.309 5.95152 181.489C6.49334 182.176 6.64429 182.738 6.28841 182.738C5.93153 182.738 6.30841 184.031 7.12513 185.61C7.94286 187.19 8.32873 188.764 7.98385 189.109C7.63996 189.454 7.90887 189.736 8.58265 189.736C9.25643 189.736 9.55433 190.148 9.24343 190.651C8.93253 191.153 10.2071 194.5 12.0775 198.087C13.9469 201.674 15.2884 204.798 15.0585 205.028C14.8286 205.258 15.3264 206.014 16.1641 206.71C17.0019 207.406 17.6876 208.595 17.6876 209.351C17.6876 210.109 18.0855 210.729 18.5703 210.729C19.0562 210.729 19.7379 211.516 20.0858 212.478C21.1035 215.293 23.2368 218.619 25.72 221.262C26.9925 222.617 27.7263 223.725 27.3514 223.725C25.737 223.725 44.7896 243.447 51.6763 248.905C62.8146 257.733 76.682 265.713 90.1635 271.052C112.033 279.714 142.238 282.071 167.138 277.059C183.479 273.77 201.997 266.634 212.423 259.61C214.787 258.017 217.111 256.714 217.588 256.714C218.064 256.714 218.604 256.376 218.788 255.964C218.971 255.551 221.145 253.865 223.619 252.215C230.565 247.585 248.535 229.072 254.185 220.724C265.567 203.912 274.219 183.949 276.701 168.773C277.288 165.182 278.18 160.359 278.685 158.053C280.098 151.587 279.775 126.24 278.163 117.26C276.163 106.11 271.326 89.917 267.624 81.9697C264.642 75.5698 256.828 61.8294 255.574 60.7787C255.246 60.5038 253.475 58.0296 251.641 55.2805C248.724 50.909 239.185 40.9913 228.487 31.2075C226.634 29.5131 223.094 26.814 220.62 25.2095C218.146 23.6041 215.972 21.9546 215.789 21.5418C215.605 21.1289 214.887 20.792 214.192 20.792C213.498 20.792 211.891 19.8923 210.624 18.7927C209.356 17.693 207.712 16.7933 206.972 16.7933C206.231 16.7933 205.625 16.3435 205.625 15.7937C205.625 15.2438 205.04 14.794 204.325 14.794C202.426 14.794 197.645 12.4298 197.636 11.4861C197.632 11.0412 197.158 10.9673 196.584 11.3222C196.01 11.677 194.999 11.5421 194.335 11.0223C192.727 9.76167 183.333 6.25084 182.383 6.55574C181.971 6.68869 181.633 6.29882 181.633 5.69002C181.633 5.08122 181.002 4.82531 180.232 5.12121C179.461 5.41711 178.523 5.35313 178.148 4.97826C177.774 4.60338 177.168 4.2625 176.802 4.21951C176.435 4.17753 174.56 3.81365 172.636 3.41178C170.712 3.01091 168.238 2.51708 167.138 2.31614C166.038 2.11521 165.026 1.8603 164.889 1.75033C162.907 0.152863 123.311 -0.242006 116.905 1.27149ZM118.195 79.8394C119.221 81.4988 118.3 81.7288 116.866 80.1713C116.156 79.4025 116.017 78.7727 116.557 78.7727C117.096 78.7727 117.833 79.2526 118.195 79.8394ZM166.888 79.4345C166.201 79.7124 165.077 79.7124 164.389 79.4345C163.702 79.1576 164.264 78.9307 165.638 78.9307C167.013 78.9307 167.576 79.1576 166.888 79.4345ZM172.365 80.3762C172.033 80.7081 171.171 80.7441 170.45 80.4552C169.652 80.1363 169.889 79.8994 171.054 79.8514C172.107 79.8084 172.697 80.0443 172.365 80.3762ZM119.154 83.7711C118.814 84.3209 117.775 84.7387 116.846 84.7008C115.467 84.6428 115.525 84.4718 117.155 83.7711C119.83 82.6215 119.865 82.6215 119.154 83.7711ZM188.19 86.3252C190.019 87.7917 189.987 87.8117 187.631 86.6901C184.571 85.2326 184.004 84.7707 185.274 84.7707C185.811 84.7707 187.122 85.4705 188.19 86.3252ZM93.5794 86.1353C93.3505 86.3352 92.0379 87.035 90.6634 87.6898C88.3072 88.8114 88.2752 88.7914 90.1046 87.3249C91.697 86.0493 94.951 84.9347 93.5794 86.1353ZM109.657 86.7701C108.832 87.3029 107.708 87.7388 107.158 87.7388C106.608 87.7388 106.833 87.3029 107.658 86.7701C108.482 86.2373 109.607 85.8014 110.157 85.8014C110.707 85.8014 110.482 86.2373 109.657 86.7701ZM127.901 87.4319C127.214 87.7098 126.09 87.7098 125.402 87.4319C124.715 87.1549 125.277 86.928 126.651 86.928C128.026 86.928 128.589 87.1549 127.901 87.4319ZM154.892 87.4319C154.205 87.7098 153.081 87.7098 152.393 87.4319C151.706 87.1549 152.268 86.928 153.642 86.928C155.017 86.928 155.58 87.1549 154.892 87.4319ZM120.903 88.4315C120.217 88.7094 119.092 88.7094 118.404 88.4315C117.717 88.1546 118.279 87.9277 119.654 87.9277C121.028 87.9277 121.591 88.1546 120.903 88.4315ZM161.89 88.4315C161.203 88.7094 160.078 88.7094 159.391 88.4315C158.704 88.1546 159.266 87.9277 160.64 87.9277C162.015 87.9277 162.577 88.1546 161.89 88.4315ZM102.659 89.2343C102.659 89.4892 101.647 90.1889 100.41 90.7887C98.2499 91.8354 98.2379 91.8174 100.101 90.3239C102.141 88.6904 102.659 88.4695 102.659 89.2343ZM108.386 91.3725C108.055 91.7044 107.192 91.7404 106.471 91.4515C105.673 91.1326 105.91 90.8957 107.075 90.8477C108.129 90.8047 108.718 91.0407 108.386 91.3725ZM97.6611 92.2333C97.6611 92.4882 96.6484 93.1879 95.4118 93.7877C93.2515 94.8344 93.2395 94.8164 95.1029 93.3229C97.1422 91.6894 97.6611 91.4685 97.6611 92.2333ZM178.127 92.7571C178.477 93.3229 178.076 93.4908 177.187 93.15C175.455 92.4852 175.138 91.7684 176.576 91.7684C177.094 91.7684 177.791 92.2133 178.127 92.7571ZM99.6604 94.1606C99.6604 94.3765 98.9626 94.8214 98.1089 95.1493C97.2192 95.4902 96.8183 95.3222 97.1682 94.7564C97.755 93.8057 99.6604 93.3509 99.6604 94.1606ZM92.3298 96.2229C92.3298 97.0237 91.9549 97.4465 91.4961 97.1636C91.0383 96.8807 90.6634 97.2006 90.6634 97.8744C90.6634 98.5482 90.3745 98.8101 90.0206 98.4572C89.6677 98.1033 89.9476 97.1286 90.6434 96.2909C92.2039 94.4105 92.3298 94.4055 92.3298 96.2229ZM88.664 98.7661C88.664 99.3159 88.1872 99.7658 87.6054 99.7658C87.0236 99.7658 86.8247 99.3159 87.1645 98.7661C87.5044 98.2163 87.9803 97.7664 88.2232 97.7664C88.4661 97.7664 88.664 98.2163 88.664 98.7661ZM193.629 99.2659C194.347 100.131 194.444 100.765 193.858 100.765C193.3 100.765 192.585 100.091 192.268 99.2659C191.952 98.4412 191.849 97.7664 192.039 97.7664C192.229 97.7664 192.944 98.4412 193.629 99.2659ZM165.888 132.417C165.202 132.695 164.077 132.695 163.389 132.417C162.702 132.14 163.264 131.913 164.639 131.913C166.013 131.913 166.576 132.14 165.888 132.417ZM63.3554 134.942C63.0366 135.739 62.7996 135.502 62.7517 134.337C62.7087 133.284 62.9446 132.694 63.2765 133.026C63.6084 133.358 63.6444 134.22 63.3554 134.942ZM173.136 135.754C174.131 136.853 174.72 137.753 174.446 137.753C174.171 137.753 173.131 136.853 172.136 135.754C171.142 134.654 170.552 133.754 170.827 133.754C171.102 133.754 172.141 134.654 173.136 135.754ZM108.657 135.132C108.657 135.339 107.871 136.127 106.908 136.881C105.323 138.124 105.288 138.089 106.53 136.504C107.837 134.838 108.657 134.309 108.657 135.132ZM103.321 146C103.044 146.688 102.817 146.125 102.817 144.751C102.817 143.376 103.044 142.814 103.321 143.501C103.599 144.189 103.599 145.314 103.321 146ZM128.358 149.987C128.119 151.231 127.914 150.449 127.903 148.25C127.892 146.05 128.088 145.033 128.338 145.988C128.588 146.944 128.597 148.743 128.358 149.987ZM60.3564 148.937C60.0375 149.734 59.8006 149.497 59.7526 148.333C59.7097 147.279 59.9456 146.689 60.2775 147.021C60.6094 147.353 60.6453 148.216 60.3564 148.937ZM103.321 150.999C103.044 151.687 102.817 151.124 102.817 149.749C102.817 148.375 103.044 147.813 103.321 148.5C103.599 149.187 103.599 150.312 103.321 150.999ZM59.3358 155.997C59.0589 156.685 58.8319 156.122 58.8319 154.747C58.8319 153.373 59.0589 152.811 59.3358 153.498C59.6137 154.186 59.6137 155.31 59.3358 155.997ZM107.658 158.246C108.949 159.621 109.781 160.745 109.506 160.745C109.231 160.745 107.95 159.621 106.658 158.246C105.366 156.872 104.535 155.747 104.81 155.747C105.085 155.747 106.366 156.872 107.658 158.246ZM125.652 157.092C125.652 157.282 124.64 158.293 123.402 159.341L121.153 161.245L123.058 158.996C124.847 156.883 125.652 156.292 125.652 157.092ZM221.303 158.934C220.984 159.731 220.747 159.494 220.699 158.329C220.656 157.276 220.892 156.686 221.224 157.018C221.556 157.35 221.592 158.212 221.303 158.934ZM58.3361 163.994C58.0592 164.682 57.8323 164.119 57.8323 162.745C57.8323 161.37 58.0592 160.808 58.3361 161.495C58.614 162.183 58.614 163.308 58.3361 163.994ZM222.303 166.931C221.984 167.728 221.747 167.491 221.699 166.327C221.656 165.273 221.892 164.683 222.224 165.015C222.556 165.347 222.592 166.21 222.303 166.931ZM57.3365 174.991C57.0595 175.679 56.8326 175.116 56.8326 173.741C56.8326 172.367 57.0595 171.805 57.3365 172.492C57.6144 173.179 57.6144 174.304 57.3365 174.991ZM86.6647 175.776C86.6647 177.196 86.1859 176.978 84.0706 174.595C82.1762 172.462 82.1782 172.457 84.4155 173.631C85.652 174.28 86.6647 175.246 86.6647 175.776ZM219.487 181.125L215.155 185.237L218.888 181.197C220.94 178.974 222.672 176.275 222.735 175.199C222.845 173.341 222.876 173.337 223.334 175.127C223.667 176.421 222.463 178.299 219.487 181.125ZM91.856 178.509C91.1932 178.73 90.9653 179.434 91.3491 180.074C91.733 180.715 91.2912 180.626 90.3665 179.876C88.3452 178.237 89.0559 176.57 91.3941 177.467C92.4578 177.875 92.6247 178.253 91.856 178.509ZM192.629 177.118C192.629 177.325 191.843 178.113 190.88 178.867C189.295 180.11 189.26 180.075 190.502 178.49C191.809 176.824 192.629 176.295 192.629 177.118ZM61.1732 181.739C63.3205 183.938 64.853 185.737 64.578 185.737C64.3031 185.737 62.3208 183.938 60.1735 181.739C58.0262 179.539 56.4937 177.74 56.7686 177.74C57.0435 177.74 59.0259 179.539 61.1732 181.739ZM94.79 182.488C96.0326 184.074 95.9976 184.109 94.4121 182.866C92.7467 181.56 92.2179 180.739 93.0406 180.739C93.2475 180.739 94.0353 181.526 94.79 182.488ZM67.799 187.487C69.0416 189.072 69.0066 189.107 67.4211 187.864C65.7557 186.558 65.2268 185.737 66.0496 185.737C66.2565 185.737 67.0442 186.524 67.799 187.487ZM128.92 188.392C128.243 188.666 126.893 188.683 125.921 188.429C124.948 188.175 125.502 187.951 127.151 187.931C128.801 187.911 129.596 188.118 128.92 188.392ZM152.893 188.398C152.206 188.676 151.081 188.676 150.394 188.398C149.707 188.121 150.269 187.894 151.643 187.894C153.018 187.894 153.58 188.121 152.893 188.398ZM171.764 196.484C173.007 198.069 172.972 198.104 171.387 196.861C169.721 195.555 169.192 194.734 170.015 194.734C170.222 194.734 171.01 195.521 171.764 196.484ZM107.658 199.233C106.973 200.057 105.232 200.671 103.787 200.596L101.16 200.46L103.659 200.011C105.034 199.765 106.585 199.152 107.108 198.648C108.63 197.181 109.018 197.593 107.658 199.233Z" fill="#D1D5E9"/>
<path fill-rule="evenodd" clip-rule="evenodd" d="M116.905 1.27149C114.018 1.95326 111.656 2.26116 111.656 1.95526C111.656 1.64937 111.152 1.90328 110.535 2.52008C109.918 3.13687 108.871 3.43377 108.209 3.17886C107.545 2.92494 105.688 3.25383 104.081 3.90961C102.474 4.5664 100.285 5.26916 99.2175 5.4731C95.9106 6.10289 83.3068 10.8483 81.9513 11.9739C81.2445 12.5597 80.6667 12.7267 80.6667 12.3448C80.6667 11.9629 79.4891 12.5757 78.0496 13.7084C76.6111 14.84 75.0876 15.5527 74.6647 15.2908C74.2418 15.0299 73.3401 15.4858 72.6604 16.3045C71.9806 17.1232 71.0369 17.793 70.5631 17.793C69.1415 17.793 59.3068 24.0439 57.4244 26.1442C56.4617 27.2179 55.675 27.8177 55.675 27.4788C55.675 25.5534 31.731 49.3895 27.6373 55.3905C25.8029 58.0786 23.9385 60.4288 23.4937 60.6118C23.0498 60.7957 22.686 61.5824 22.686 62.3612C22.686 63.1399 22.2361 63.7777 21.6863 63.7777C21.1365 63.7777 20.6866 64.4525 20.6866 65.2772C20.6866 66.1019 20.2098 66.7767 19.628 66.7767C19.0462 66.7767 18.8472 67.2266 19.1871 67.7764C19.527 68.3262 19.3021 68.7761 18.6873 68.7761C18.0725 68.7761 17.8476 69.2259 18.1875 69.7757C18.5273 70.3255 18.4374 70.7754 17.9875 70.7754C16.9079 70.7754 14.6316 74.4732 14.1408 77.0233C13.9259 78.1359 13.1261 79.7724 12.3614 80.6591C11.5976 81.5458 10.7229 83.1713 10.418 84.2709C10.1141 85.3705 8.87655 88.9693 7.66795 92.2682C1.94585 107.887 0.407367 117.152 0.0734775 138.003C-0.136453 151.058 0.104467 157.746 0.783242 157.746C1.34905 157.746 1.57598 158.127 1.28807 158.592C0.838224 159.32 1.24109 162.401 3.07148 172.242C3.9052 176.721 5.02283 180.309 5.95152 181.489C6.49334 182.176 6.64429 182.738 6.28841 182.738C5.93153 182.738 6.30841 184.031 7.12513 185.61C7.94286 187.19 8.32873 188.764 7.98385 189.109C7.63996 189.454 7.90887 189.736 8.58265 189.736C9.25643 189.736 9.55433 190.148 9.24343 190.651C8.93253 191.153 10.2071 194.5 12.0775 198.087C13.9469 201.674 15.2884 204.798 15.0585 205.028C14.8286 205.258 15.3264 206.014 16.1641 206.71C17.0019 207.406 17.6876 208.595 17.6876 209.351C17.6876 210.109 18.0855 210.729 18.5703 210.729C19.0562 210.729 19.7379 211.516 20.0858 212.478C21.1035 215.293 23.2368 218.619 25.72 221.262C26.9925 222.617 27.7263 223.725 27.3514 223.725C25.737 223.725 44.7896 243.447 51.6763 248.905C62.8146 257.733 76.682 265.713 90.1635 271.052C112.033 279.714 142.238 282.071 167.138 277.059C183.479 273.77 201.997 266.634 212.423 259.61C214.787 258.017 217.111 256.714 217.588 256.714C218.064 256.714 218.604 256.376 218.788 255.964C218.971 255.551 221.145 253.865 223.619 252.215C230.565 247.585 248.535 229.072 254.185 220.724C265.567 203.912 274.219 183.949 276.701 168.773C277.288 165.182 278.18 160.359 278.685 158.053C280.098 151.587 279.775 126.24 278.163 117.26C276.163 106.11 271.326 89.917 267.624 81.9697C264.642 75.5698 256.828 61.8294 255.574 60.7787C255.246 60.5038 253.475 58.0296 251.641 55.2805C248.724 50.909 239.185 40.9913 228.487 31.2075C226.634 29.5131 223.094 26.814 220.62 25.2095C218.146 23.6041 215.972 21.9546 215.789 21.5418C215.605 21.1289 214.887 20.792 214.192 20.792C213.498 20.792 211.891 19.8923 210.624 18.7927C209.356 17.693 207.712 16.7933 206.972 16.7933C206.231 16.7933 205.625 16.3435 205.625 15.7937C205.625 15.2438 205.04 14.794 204.325 14.794C202.426 14.794 197.645 12.4298 197.636 11.4861C197.632 11.0412 197.158 10.9673 196.584 11.3222C196.01 11.677 194.999 11.5421 194.335 11.0223C192.727 9.76167 183.333 6.25084 182.383 6.55574C181.971 6.68869 181.633 6.29882 181.633 5.69002C181.633 5.08122 181.002 4.82531 180.232 5.12121C179.461 5.41711 178.523 5.35313 178.148 4.97826C177.774 4.60338 177.168 4.2625 176.802 4.21951C176.435 4.17753 174.56 3.81365 172.636 3.41178C170.712 3.01091 168.238 2.51708 167.138 2.31614C166.038 2.11521 165.026 1.8603 164.889 1.75033C162.907 0.152863 123.311 -0.242006 116.905 1.27149ZM118.195 79.8394C119.271 81.5798 118.046 81.9487 116.675 80.2962C115.886 79.3465 115.81 78.7727 116.474 78.7727C117.058 78.7727 117.833 79.2526 118.195 79.8394ZM170.579 79.8534C173.35 80.4472 175.829 81.2769 176.088 81.6968C176.348 82.1156 174.44 81.9087 171.848 81.2369C169.258 80.5651 166.238 79.7874 165.139 79.5095C161.199 78.5138 165.642 78.7947 170.579 79.8534ZM110.657 80.2013C110.657 80.7121 100.226 83.8161 99.0066 83.6681C98.1729 83.5671 108.448 79.9523 109.907 79.8334C110.319 79.7994 110.657 79.9653 110.657 80.2013ZM170.351 86.3892C169.804 86.937 159.64 83.4322 159.64 82.6954C159.64 82.3146 162.123 82.9164 165.158 84.034C168.192 85.1516 170.529 86.2113 170.351 86.3892ZM189.99 87.3099C193.026 89.4362 191.701 89.1053 185.824 86.2702C182.975 84.8957 180.218 83.7711 179.698 83.7711C179.178 83.7711 178.471 83.3162 178.127 82.7604C177.373 81.5388 187.051 85.2506 189.99 87.3099ZM119.154 83.7711C118.814 84.3209 117.775 84.7637 116.846 84.7557C115.389 84.7417 115.362 84.6058 116.655 83.7711C118.612 82.5055 119.936 82.5055 119.154 83.7711ZM97.1612 84.7707C96.8213 85.3206 96.0076 85.7634 95.3528 85.7554C94.6371 85.7454 94.761 85.3525 95.6617 84.7707C97.5821 83.5292 97.928 83.5292 97.1612 84.7707ZM111.218 85.6724C110.593 86.6831 104.659 88.9424 104.659 88.1696C104.659 87.7647 110.364 84.9497 111.465 84.8097C111.635 84.7887 111.523 85.1766 111.218 85.6724ZM87.4454 89.8111C83.7507 92.0283 80.0499 94.8104 79.2212 95.994C78.3925 97.1776 77.5148 97.9474 77.2728 97.7044C76.3291 96.7608 79.4911 93.8277 85.69 89.896C89.2498 87.6368 92.6127 85.7874 93.1625 85.7854C93.7124 85.7834 91.1392 87.5948 87.4454 89.8111ZM127.901 87.4319C127.214 87.7098 126.09 87.7098 125.402 87.4319C124.715 87.1549 125.277 86.928 126.651 86.928C128.026 86.928 128.589 87.1549 127.901 87.4319ZM133.918 87.4259C133.241 87.6998 131.892 87.7168 130.919 87.4628C129.946 87.2089 130.5 86.985 132.15 86.965C133.799 86.945 134.595 87.1519 133.918 87.4259ZM149.394 87.4588C148.431 87.7108 146.858 87.7108 145.895 87.4588C144.932 87.2079 145.72 87.002 147.644 87.002C149.569 87.002 150.357 87.2079 149.394 87.4588ZM154.892 87.4319C154.205 87.7098 153.081 87.7098 152.393 87.4319C151.706 87.1549 152.268 86.928 153.642 86.928C155.017 86.928 155.58 87.1549 154.892 87.4319ZM176.194 88.3246C178.023 89.7911 177.991 89.8111 175.635 88.6894C172.575 87.2319 172.008 86.7701 173.278 86.7701C173.815 86.7701 175.126 87.4698 176.194 88.3246ZM123.652 88.1606C123.652 88.3745 122.11 88.7304 120.224 88.9513C118.338 89.1713 117.015 88.9953 117.284 88.5605C117.767 87.7777 123.652 87.4079 123.652 88.1606ZM163.01 88.5605C163.279 88.9953 161.956 89.1713 160.07 88.9513C158.184 88.7304 156.641 88.3745 156.641 88.1606C156.641 87.4079 162.526 87.7777 163.01 88.5605ZM102.659 89.1963C102.659 89.4302 100.18 91.0407 97.1512 92.7741C94.1212 94.5075 91.887 96.3209 92.1859 96.8037C92.4838 97.2866 91.3142 98.4122 89.5857 99.3069C83.9186 102.237 86.8436 98.6191 94.2412 93.5478C100.654 89.1513 102.659 88.1146 102.659 89.1963ZM115.655 89.1623C115.655 89.3782 114.957 89.8231 114.104 90.151C113.214 90.4918 112.813 90.3239 113.163 89.7581C113.75 88.8074 115.655 88.3525 115.655 89.1623ZM167.131 89.7581C167.481 90.3239 167.08 90.4918 166.19 90.151C164.459 89.4862 164.142 88.7694 165.579 88.7694C166.097 88.7694 166.795 89.2143 167.131 89.7581ZM200.627 94.4305C200.627 94.6485 198.83 93.8017 196.636 92.5482C194.441 91.2946 192.641 89.925 192.637 89.5052C192.632 89.0853 194.429 89.932 196.628 91.3875C198.827 92.8431 200.627 94.2116 200.627 94.4305ZM111.656 90.1709C111.656 90.3919 110.307 91.0437 108.657 91.6185C107.008 92.1933 105.658 92.2692 105.658 91.7864C105.658 91.0307 106.636 90.6808 110.907 89.905C111.319 89.8301 111.656 89.95 111.656 90.1709ZM183.632 91.7684C184.457 92.3012 184.682 92.7371 184.132 92.7371C183.582 92.7371 182.458 92.3012 181.633 91.7684C180.808 91.2356 180.583 90.7997 181.133 90.7997C181.683 90.7997 182.808 91.2356 183.632 91.7684ZM104.659 92.2553C104.659 93.013 97.4141 95.8531 96.8693 95.3082C96.6024 95.0413 97.4591 94.4255 98.7717 93.9397C100.085 93.4529 101.835 92.8011 102.659 92.4912C103.484 92.1803 104.271 91.8904 104.409 91.8474C104.547 91.8044 104.659 91.9873 104.659 92.2553ZM178.134 92.7681C178.474 93.3179 178.302 93.7677 177.752 93.7677C177.203 93.7677 176.475 93.3179 176.135 92.7681C175.795 92.2183 175.967 91.7684 176.517 91.7684C177.067 91.7684 177.794 92.2183 178.134 92.7681ZM184.672 95.7871C186.849 96.8987 188.631 98.0323 188.631 98.3072C188.631 98.7551 180.739 95.0703 179.717 94.1446C178.61 93.143 181.119 93.9757 184.672 95.7871ZM193.127 98.7441C194.83 100.532 195.404 101.616 194.455 101.252C193.536 100.899 192.501 99.8707 192.154 98.967C191.606 97.5415 191.386 97.5185 190.5 98.7941C189.602 100.087 189.528 100.086 189.881 98.7861C190.102 97.9723 189.35 96.4848 188.208 95.4802C186.228 93.7398 186.225 93.6998 188.131 94.6245C189.231 95.1583 191.479 97.0117 193.127 98.7441ZM205.177 102.867C207.144 106.772 208.589 110.13 208.39 110.329C208.191 110.529 206.367 107.333 204.336 103.23C202.305 99.125 200.859 95.7671 201.123 95.7671C201.386 95.7671 203.21 98.962 205.177 102.867ZM70.762 112.865C69.6894 115.283 68.7796 116.932 68.7417 116.53C68.6267 115.347 71.8836 107.643 72.3155 108.076C72.5334 108.293 71.8336 110.449 70.762 112.865ZM210.006 113.313C210.347 114.203 210.179 114.604 209.613 114.254C209.069 113.918 208.624 113.22 208.624 112.702C208.624 111.265 209.341 111.582 210.006 113.313ZM211.43 118.286C211.122 118.593 210.564 118.039 210.188 117.053C209.646 115.628 209.76 115.514 210.747 116.493C211.431 117.172 211.738 117.979 211.43 118.286ZM67.5601 121.647C66.9443 123.414 66.2655 124.684 66.0516 124.471C65.8376 124.257 66.1665 122.636 66.7823 120.87C67.3981 119.103 68.0769 117.833 68.2908 118.047C68.5047 118.261 68.1759 119.881 67.5601 121.647ZM214.501 126.734C215.147 128.646 215.246 129.771 214.72 129.233C214.194 128.696 213.444 126.907 213.053 125.257C212.135 121.389 212.988 122.257 214.501 126.734ZM116.905 132.417C116.218 132.695 115.093 132.695 114.405 132.417C113.719 132.14 114.281 131.913 115.655 131.913C117.03 131.913 117.592 132.14 116.905 132.417ZM170.664 133.474C173.443 135.406 176.551 138.846 176.602 140.044C176.62 140.48 174.905 139.018 172.791 136.795C169.649 133.494 168.271 132.755 165.244 132.755C161.063 132.755 156.287 134.893 154.634 137.503C153.884 138.687 153.65 138.768 153.911 137.753C154.566 135.202 160.689 131.755 164.564 131.755C166.56 131.755 169.305 132.529 170.664 133.474ZM63.6334 135.89C63.1385 137.614 62.4238 139.301 62.0449 139.639C61.665 139.976 61.651 139.429 62.0139 138.421C62.3758 137.414 62.6727 135.727 62.6727 134.672C62.6727 133.618 63.0915 132.755 63.6024 132.755C64.1692 132.755 64.1812 133.978 63.6334 135.89ZM121.624 133.715C122.433 134.227 122.882 134.858 122.622 135.118C122.363 135.378 121.277 134.952 120.211 134.172C118.078 132.613 119.271 132.227 121.624 133.715ZM108.657 135.132C108.657 135.339 107.871 136.127 106.908 136.881C105.323 138.124 105.288 138.089 106.53 136.504C107.837 134.838 108.657 134.309 108.657 135.132ZM217.415 138.397C217.124 139.771 216.872 139.52 216.447 137.427C216.074 135.603 216.214 134.946 216.839 135.572C217.372 136.105 217.632 137.376 217.415 138.397ZM127.651 141.134C127.651 141.684 126.99 141.261 126.184 140.193C125.376 139.127 124.716 137.803 124.716 137.253C124.716 136.703 125.376 137.127 126.184 138.194C126.99 139.262 127.651 140.584 127.651 141.134ZM104.659 140.252C104.659 141.077 104.223 141.752 103.69 141.752C103.158 141.752 102.981 141.077 103.297 140.252C103.614 139.428 104.05 138.753 104.266 138.753C104.482 138.753 104.659 139.428 104.659 140.252ZM218.283 144.001C218.006 144.689 217.779 144.126 217.779 142.751C217.779 141.377 218.006 140.815 218.283 141.502C218.561 142.19 218.561 143.314 218.283 144.001ZM103.468 147.5C103.448 151.371 103.279 151.817 102.553 149.916C101.794 147.926 102.25 142.751 103.184 142.751C103.354 142.751 103.481 144.888 103.468 147.5ZM154.22 155.61C155.188 157.249 157.028 159.15 158.309 159.836C159.589 160.521 160.427 161.292 160.17 161.549C159.913 161.806 158.527 161.245 157.088 160.304C153.819 158.161 150.656 151.364 150.783 146.75C150.869 143.591 150.955 143.707 151.669 147.941C152.104 150.52 153.253 153.971 154.22 155.61ZM127.966 152.833C127.514 153.285 127.361 151.539 127.626 148.953L128.109 144.251L128.448 148.132C128.635 150.266 128.418 152.381 127.966 152.833ZM60.9522 147.79C60.6593 148.91 60.1965 149.605 59.9226 149.332C59.3818 148.791 60.3375 145.75 61.0482 145.75C61.2891 145.75 61.2461 146.668 60.9522 147.79ZM176.451 154.252C175.824 155.629 175.122 156.567 174.892 156.337C174.425 155.87 176.452 151.748 177.149 151.748C177.393 151.748 177.079 152.875 176.451 154.252ZM59.3628 157.497C59.1119 158.459 58.9059 157.672 58.9059 155.747C58.9059 153.823 59.1119 153.035 59.3628 153.998C59.6147 154.96 59.6147 156.534 59.3628 157.497ZM104.659 154.144C104.659 154.911 106.249 156.936 108.193 158.642C110.136 160.349 111.322 161.745 110.828 161.745C109.7 161.745 104.815 156.907 103.543 154.53C102.913 153.354 102.941 152.748 103.624 152.748C104.193 152.748 104.659 153.376 104.659 154.144ZM123.544 159.688C122.229 160.782 120.79 161.693 120.348 161.712C119.905 161.73 120.804 160.659 122.347 159.331C123.889 158.003 125.328 157.093 125.544 157.307C125.759 157.522 124.859 158.592 123.544 159.688ZM221.309 161.495C221.058 162.458 220.852 161.67 220.852 159.746C220.852 157.821 221.058 157.034 221.309 157.996C221.561 158.959 221.561 160.533 221.309 161.495ZM172.136 159.746C171.142 160.845 169.897 161.745 169.371 161.745C168.846 161.745 169.478 160.86 170.776 159.779C173.831 157.234 174.423 157.22 172.136 159.746ZM58.3361 163.994C58.0592 164.682 57.8323 164.119 57.8323 162.745C57.8323 161.37 58.0592 160.808 58.3361 161.495C58.614 162.183 58.614 163.308 58.3361 163.994ZM167.367 162.349C167.035 162.681 166.172 162.717 165.452 162.428C164.654 162.109 164.891 161.872 166.055 161.824C167.109 161.781 167.699 162.017 167.367 162.349ZM222.303 166.931C221.984 167.728 221.747 167.491 221.699 166.327C221.656 165.273 221.892 164.683 222.224 165.015C222.556 165.347 222.592 166.21 222.303 166.931ZM218.652 181.984C215.803 184.604 212.494 187.213 211.298 187.781C210.103 188.349 210.698 187.562 212.623 186.031C214.547 184.501 217.594 181.817 219.395 180.07C222.335 177.215 222.617 176.452 222.168 172.568L221.668 168.243L222.749 172.733L223.832 177.221L218.652 181.984ZM196.693 174.023C194.861 175.792 193.72 176.601 194.159 175.82C194.769 174.735 194.507 174.562 193.043 175.084C191.641 175.585 191.798 175.236 193.629 173.776C195.004 172.682 196.691 171.776 197.378 171.764C198.066 171.752 198.627 171.217 198.627 170.575C198.627 169.934 198.941 169.724 199.326 170.107C199.71 170.492 198.526 172.254 196.693 174.023ZM86.6587 175.678C86.6627 176.604 85.6011 176.095 83.6657 174.241C79.9169 170.649 79.916 170.408 83.6597 172.539C85.3052 173.474 86.6547 174.888 86.6587 175.678ZM57.3365 174.991C57.0595 175.679 56.8326 175.116 56.8326 173.741C56.8326 172.367 57.0595 171.805 57.3365 172.492C57.6144 173.179 57.6144 174.304 57.3365 174.991ZM91.2222 177.208C92.4188 178.114 92.6607 178.689 91.854 178.708C91.1342 178.726 90.8513 179.234 91.2252 179.839C91.702 180.612 91.2742 180.601 89.7847 179.804C87.2255 178.435 86.9696 177.284 89.4138 178.135C90.8723 178.643 90.8403 178.495 89.2229 177.242C88.1552 176.416 87.7323 175.741 88.2822 175.741C88.832 175.741 90.1545 176.401 91.2222 177.208ZM190.187 176.647C189.541 177.694 174.622 184.058 174.082 183.518C173.822 183.257 185.91 177.598 190.439 175.859C190.609 175.793 190.496 176.148 190.187 176.647ZM68.1709 187.628L72.1695 190.963L68.1709 188.198C63.6384 185.064 56.6747 178.678 56.6747 177.655C56.6747 177.281 58.3621 178.622 60.4234 180.634C62.4857 182.645 65.9716 185.793 68.1709 187.628ZM192.547 178.047C192.318 178.216 190.33 179.728 188.131 181.409C184.209 184.405 177.634 188.16 177.634 187.405C177.634 187.194 180.268 185.396 183.486 183.409C186.703 181.423 189.917 179.099 190.626 178.245C191.335 177.391 192.151 176.928 192.439 177.216C192.726 177.504 192.775 177.878 192.547 178.047ZM99.1606 180.811C101.36 181.868 102.035 182.453 100.66 182.111C97.83 181.407 92.6327 178.801 94.1622 178.853C94.712 178.872 96.9613 179.753 99.1606 180.811ZM101.721 186.703C108.261 190.308 107.561 190.77 100.877 187.261C95.4568 184.416 92.6627 182.362 92.6627 181.224C92.6627 180.787 93.4774 181.167 94.4731 182.067C95.4688 182.969 98.7307 185.054 101.721 186.703ZM113.156 185.167C115.905 185.932 117.255 186.564 116.155 186.571C114.027 186.584 105.466 184.007 107.158 183.862C107.708 183.815 110.407 184.403 113.156 185.167ZM167.638 185.737C166.263 186.177 164.239 186.538 163.139 186.538C161.556 186.538 161.66 186.371 163.639 185.737C165.014 185.297 167.038 184.936 168.138 184.936C169.721 184.936 169.617 185.103 167.638 185.737ZM129.567 188.369C130.426 189.126 125.072 188.559 123.153 187.69C121.759 187.059 122.365 186.969 125.152 187.393C127.351 187.728 129.339 188.167 129.567 188.369ZM144.396 188.471C141.783 188.677 137.511 188.677 134.899 188.471C132.287 188.265 134.424 188.096 139.647 188.096C144.87 188.096 147.008 188.265 144.396 188.471ZM152.893 188.398C152.206 188.676 151.081 188.676 150.394 188.398C149.707 188.121 150.269 187.894 151.643 187.894C153.018 187.894 153.58 188.121 152.893 188.398ZM174.195 189.268C173.127 190.075 171.777 190.72 171.196 190.701C170.613 190.681 171.262 190.022 172.636 189.236C175.874 187.385 176.663 187.401 174.195 189.268ZM208.624 189.219C208.624 189.826 198.973 194.751 197.911 194.687C197.48 194.661 199.602 193.333 202.626 191.735C208.763 188.493 208.624 188.551 208.624 189.219ZM110.74 190.781C112.618 191.785 112.577 191.99 109.626 196.279C106.42 200.938 105.675 201.183 99.1606 199.718C95.5897 198.914 95.7587 198.872 100.743 199.326L106.325 199.835L108.923 195.908L111.522 191.981L109.34 190.926C108.14 190.346 107.525 189.841 107.974 189.804C108.421 189.766 109.667 190.206 110.74 190.781ZM76.718 192.261C78.3395 193.1 79.667 194.01 79.667 194.285C79.667 194.733 73.781 192.029 72.7523 191.108C71.7417 190.204 74.0209 190.866 76.718 192.261ZM172.606 196.983L174.952 200.232L172.294 197.809C170.833 196.476 169.637 195.014 169.637 194.56C169.637 193.172 170.167 193.604 172.606 196.983ZM194.129 196.27C192.48 197.025 190.455 197.629 189.63 197.612C188.806 197.595 189.705 196.974 191.63 196.234C196.194 194.476 197.99 194.502 194.129 196.27ZM90.6634 197.181C93.1376 197.961 94.2622 198.595 93.1625 198.59C91.0772 198.58 83.4158 195.932 85.1652 195.825C85.715 195.792 88.1892 196.402 90.6634 197.181ZM187.548 198.089C187.319 198.285 185.557 198.735 183.632 199.088C181.171 199.54 180.578 199.439 181.633 198.747C182.989 197.858 188.539 197.241 187.548 198.089ZM179.363 199.337C179.031 199.669 178.168 199.705 177.448 199.416C176.65 199.097 176.887 198.86 178.051 198.812C179.105 198.769 179.695 199.005 179.363 199.337Z" fill="#99CCFF"/>
<path fill-rule="evenodd" clip-rule="evenodd" d="M116.655 1.46037C113.081 2.24911 108.632 3.10982 106.769 3.37274C104.906 3.63565 102.881 4.16347 102.271 4.54535C101.66 4.92722 100.285 5.37507 99.2175 5.54102C96.1945 6.01086 83.3848 10.7833 81.9513 11.9739C81.2445 12.5597 80.6667 12.6896 80.6667 12.2618C80.6667 11.8349 79.806 12.2638 78.7553 13.2155C77.7037 14.1661 76.2412 15.0409 75.5064 15.1588C74.7707 15.2758 73.0442 16.0745 71.6697 16.9342C70.2951 17.7929 66.9832 19.7363 64.3101 21.2518C61.637 22.7663 57.8323 25.5324 55.8549 27.3978C53.8776 29.2621 51.8473 30.7886 51.3434 30.7886C49.8309 30.7886 31.3521 49.9463 27.6973 55.3025C25.8299 58.0396 23.9385 60.4288 23.4937 60.6117C23.0498 60.7957 22.686 61.5824 22.686 62.3611C22.686 63.1399 22.2361 63.7777 21.6863 63.7777C21.1365 63.7777 20.6866 64.4524 20.6866 65.2772C20.6866 66.1019 20.2098 66.7767 19.628 66.7767C19.0462 66.7767 18.8472 67.2265 19.1871 67.7763C19.527 68.3262 19.3021 68.776 18.6873 68.776C18.0725 68.776 17.8476 69.2259 18.1875 69.7757C18.5273 70.3255 18.4374 70.7753 17.9875 70.7753C16.9079 70.7753 14.6316 74.4731 14.1408 77.0233C13.9259 78.1359 13.1261 79.7724 12.3614 80.6591C11.5976 81.5458 10.7269 83.1712 10.427 84.2709C10.1271 85.3705 8.7496 89.4191 7.36706 93.2679C1.73293 108.951 0.321396 117.84 0.305402 137.753C0.290407 155.216 0.804235 162.975 2.35672 168.743C3.28341 172.187 3.19444 171.797 4.07715 176.24C4.514 178.44 5.33573 180.802 5.90354 181.489C6.47135 182.176 6.6443 182.738 6.28841 182.738C5.93153 182.738 6.30841 184.031 7.12514 185.61C7.94286 187.19 8.32873 188.764 7.98385 189.109C7.63996 189.454 7.90887 189.736 8.58265 189.736C9.25643 189.736 9.55433 190.148 9.24343 190.651C8.93253 191.153 10.2071 194.5 12.0775 198.087C13.9469 201.674 15.2884 204.798 15.0585 205.028C14.8286 205.258 15.3264 206.014 16.1641 206.71C17.0019 207.406 17.6876 208.595 17.6876 209.351C17.6876 210.109 18.0855 210.729 18.5703 210.729C19.0562 210.729 19.7379 211.516 20.0858 212.478C21.1035 215.293 23.2368 218.619 25.72 221.262C26.9925 222.617 27.7263 223.725 27.3514 223.725C25.737 223.725 44.7896 243.447 51.6763 248.905C62.8146 257.733 76.682 265.713 90.1635 271.052C112.648 279.957 142.682 282.145 168.138 276.733C185.352 273.073 201.987 266.64 212.423 259.61C214.787 258.017 217.111 256.714 217.588 256.714C218.064 256.714 218.604 256.376 218.788 255.964C218.971 255.551 221.145 253.865 223.619 252.215C230.633 247.54 248.55 229.045 254.389 220.455C265.241 204.487 274.262 183.578 276.701 168.743C277.287 165.169 278.18 160.359 278.685 158.053C280.388 150.257 279.782 125.457 277.628 114.918C275.011 102.106 271.245 89.745 267.533 81.7757C264.623 75.5308 256.811 61.8153 255.574 60.7787C255.246 60.5038 253.475 58.0296 251.641 55.2805C248.724 50.9089 239.185 40.9912 228.487 31.2075C226.634 29.513 223.094 26.8139 220.62 25.2095C218.146 23.604 215.972 21.9546 215.789 21.5417C215.605 21.1288 214.887 20.7919 214.192 20.7919C213.498 20.7919 211.891 19.8922 210.624 18.7926C209.356 17.693 207.712 16.7933 206.972 16.7933C206.231 16.7933 205.625 16.3434 205.625 15.7936C205.625 15.2438 204.944 14.7939 204.112 14.7939C203.28 14.7939 201.817 14.3601 200.863 13.8293C199.165 12.8856 193.801 10.5224 186.464 7.48537C184.446 6.65065 182.534 6.22879 182.215 6.54868C181.895 6.86858 181.633 6.55668 181.633 5.85691C181.633 5.15614 181.002 4.82525 180.232 5.12115C179.461 5.41706 178.523 5.35308 178.148 4.9782C177.774 4.60333 177.168 4.26244 176.802 4.21946C176.435 4.17747 174.561 3.81359 172.636 3.41172C170.712 3.01086 168.238 2.51702 167.138 2.31609C166.038 2.11515 165.026 1.86024 164.889 1.75028C164.037 1.0625 156.964 0.648642 141.147 0.357738C128.142 0.118818 121.351 0.424716 116.655 1.46037ZM118.195 79.8393C119.271 81.5798 118.046 81.9486 116.675 80.2962C115.886 79.3465 115.81 78.7727 116.474 78.7727C117.058 78.7727 117.833 79.2525 118.195 79.8393ZM178.941 82.4125C185.402 84.7087 200.627 93.1389 200.627 94.4205C200.627 94.9103 195.868 92.2212 190.63 88.7714C185.002 85.0636 169.364 79.7724 164.036 79.7724C162.835 79.7724 161.601 80.4301 161.292 81.2349C160.882 82.3045 162.193 83.1582 166.171 84.4128C169.164 85.3565 171.422 86.3182 171.19 86.5511C170.819 86.922 160.677 83.955 159.809 83.2222C159.627 83.0683 160.008 81.9526 160.656 80.742C161.711 78.7707 162.353 78.6097 166.792 79.1985C169.519 79.5604 174.985 81.0069 178.941 82.4125ZM106.943 81.7727C102.977 82.8123 98.8457 84.1369 97.762 84.7167C95.0949 86.1442 93.6534 86.0043 96.1456 84.5598C99.1875 82.7963 108.856 79.8793 111.656 79.8813C113.031 79.8823 110.91 80.733 106.943 81.7727ZM119.154 83.771C118.814 84.3208 117.679 84.7707 116.633 84.7707C115.586 84.7707 112.447 85.6704 109.657 86.77C104.041 88.9843 102.1 89.3232 105.143 87.5588C107.059 86.4481 117.316 82.9343 118.963 82.8253C119.408 82.7953 119.494 83.2212 119.154 83.771ZM87.3225 89.885C82.5291 92.761 79.613 95.3602 77.5757 98.5721C74.2338 103.842 73.657 103.337 76.745 97.8444C78.6444 94.4635 90.4005 85.8363 93.1625 85.7964C93.7124 85.7884 91.0842 87.6277 87.3225 89.885ZM132.4 87.4858C130.888 87.7147 128.413 87.7147 126.901 87.4858C125.39 87.2569 126.626 87.0699 129.65 87.0699C132.674 87.0699 133.911 87.2569 132.4 87.4858ZM153.411 87.4848C151.908 87.7127 149.209 87.7167 147.413 87.4948C145.616 87.2719 146.845 87.0849 150.144 87.0799C153.443 87.0739 154.913 87.2559 153.411 87.4848ZM179.663 89.783C182.946 91.4405 185.632 93.0219 185.632 93.2969C185.632 93.7447 173.738 88.0836 172.719 87.1509C171.483 86.0193 174.384 87.1189 179.663 89.783ZM117.687 89.3302C112.071 90.5478 105.176 92.6581 98.1609 95.3062C96.7913 95.823 96.4764 95.7351 97.1612 95.0253C99.0196 93.0999 116.436 87.9566 121.153 87.9396C122.804 87.9336 121.246 88.5584 117.687 89.3302ZM166.138 89.2412C171.358 90.9616 169.651 90.9816 162.14 89.2892C158.396 88.4455 157.269 87.9346 159.141 87.9306C160.79 87.9266 163.939 88.5164 166.138 89.2412ZM102.659 89.1962C102.659 89.4301 100.185 91.0376 97.1612 92.768C91.3681 96.0819 90.1585 97.3635 93.9123 96.2099C97.2492 95.1842 95.8347 96.1939 89.6637 99.2429L84.1655 101.959L86.6647 99.4308C90.9473 95.0973 102.659 87.6038 102.659 89.1962ZM178.084 92.873C179.424 94.1346 177.818 93.8917 173.636 92.2012L170.137 90.7867L173.636 91.3825C175.56 91.7104 177.563 92.3812 178.084 92.873ZM184.632 95.767C189.693 98.3492 191.491 98.3232 188.492 95.7111C186.594 94.0576 186.524 93.8447 188.131 94.6244C190.831 95.935 196.67 102.102 194.377 101.222C193.416 100.853 192.629 100.124 192.629 99.5998C192.629 99.0759 192.197 98.915 191.668 99.2419C191.139 99.5688 188.103 98.4921 184.92 96.8497C181.738 95.2072 179.489 93.8427 179.924 93.8157C180.358 93.7897 182.477 94.6674 184.632 95.767ZM205.177 102.867C207.144 106.772 208.589 110.13 208.39 110.329C208.191 110.529 206.367 107.333 204.336 103.23C202.305 99.1249 200.859 95.767 201.123 95.767C201.386 95.767 203.21 98.962 205.177 102.867ZM74.0139 105.307C73.688 106.156 73.2072 106.635 72.9453 106.374C72.6833 106.112 72.7653 105.417 73.1282 104.831C74.1139 103.236 74.6897 103.545 74.0139 105.307ZM70.762 112.865C69.6893 115.283 68.7796 116.932 68.7417 116.53C68.6267 115.347 71.8836 107.643 72.3155 108.076C72.5334 108.293 71.8336 110.449 70.762 112.865ZM211.05 116.76C211.515 118.496 211.436 118.801 210.792 117.76C210.283 116.935 209.565 115.136 209.197 113.761C208.732 112.025 208.811 111.72 209.455 112.761C209.965 113.586 210.683 115.386 211.05 116.76ZM67.2452 122.345C66.4574 124.496 65.7806 125.762 65.7417 125.156C65.6447 123.627 67.815 117.571 68.2908 118.046C68.5037 118.26 68.0339 120.194 67.2452 122.345ZM215.47 130.755C215.47 131.58 214.863 130.68 214.122 128.756C213.382 126.832 212.775 124.582 212.775 123.758C212.775 122.933 213.382 123.833 214.122 125.757C214.863 127.681 215.47 129.931 215.47 130.755ZM65.3548 128.944C65.0359 129.741 64.799 129.504 64.751 128.339C64.708 127.286 64.9439 126.696 65.2758 127.028C65.6077 127.36 65.6437 128.222 65.3548 128.944ZM63.1625 137.253C61.801 141.888 61.734 141.961 62.2368 138.253C62.9196 133.221 63.8873 129.952 64.3081 131.255C64.4861 131.805 63.9702 134.504 63.1625 137.253ZM116.905 132.417C116.218 132.695 115.093 132.695 114.405 132.417C113.719 132.14 114.281 131.913 115.655 131.913C117.03 131.913 117.592 132.14 116.905 132.417ZM170.664 133.474C173.443 135.406 176.551 138.846 176.602 140.044C176.62 140.48 174.905 139.018 172.791 136.795C169.644 133.488 168.273 132.755 165.228 132.755C160.736 132.755 157.913 134.066 154.803 137.597C152.717 139.966 152.589 140.004 153.617 137.949C156.361 132.468 165.693 130.018 170.664 133.474ZM110.157 134.596C106.036 137.115 104.903 138.691 103.902 143.29C102.568 149.42 104.172 155.112 108.239 158.683C111.522 161.566 111.887 163.106 108.657 160.448C100.632 153.843 99.9113 142.597 107.09 136.004C109.035 134.217 111.197 132.757 111.891 132.759C112.587 132.761 111.806 133.587 110.157 134.596ZM124.252 136.154C126.122 138.023 127.648 140.159 127.644 140.902C127.641 141.645 126.79 140.966 125.754 139.394C124.718 137.822 122.584 135.688 121.012 134.652C119.44 133.615 118.761 132.765 119.504 132.762C120.247 132.758 122.383 134.284 124.252 136.154ZM217.451 138.253C217.427 139.86 217.265 139.762 216.622 137.753C215.527 134.335 215.527 131.707 216.622 134.254C217.094 135.354 217.467 137.153 217.451 138.253ZM218.283 144.001C218.006 144.689 217.779 144.126 217.779 142.751C217.779 141.377 218.006 140.815 218.283 141.502C218.561 142.19 218.561 143.314 218.283 144.001ZM177.318 143.939C176.999 144.736 176.762 144.499 176.714 143.334C176.671 142.281 176.907 141.691 177.239 142.023C177.571 142.355 177.606 143.217 177.318 143.939ZM61.0732 147.65C60.7073 149.941 60.1975 151.605 59.9416 151.35C59.6847 151.094 59.7896 149.023 60.1735 146.75C60.5574 144.477 61.0672 142.811 61.3051 143.05C61.5441 143.289 61.4391 145.359 61.0732 147.65ZM128.2 152.34C127.645 155.298 122.352 161.745 120.478 161.745C120.041 161.745 121.33 160.236 123.343 158.391C126.641 155.368 127.057 154.407 127.556 148.644C127.949 144.114 128.211 143.251 128.458 145.683C128.649 147.571 128.533 150.566 128.2 152.34ZM154.22 155.61C155.188 157.249 157.028 159.15 158.309 159.836C159.589 160.521 160.427 161.292 160.17 161.549C159.913 161.806 158.527 161.245 157.088 160.304C153.819 158.161 150.656 151.364 150.783 146.75C150.869 143.591 150.955 143.707 151.669 147.941C152.104 150.52 153.253 153.971 154.22 155.61ZM219.283 148.999C219.006 149.687 218.779 149.124 218.779 147.75C218.779 146.375 219.006 145.813 219.283 146.5C219.561 147.188 219.561 148.313 219.283 148.999ZM177.241 152.183C176.587 154.785 171.051 161.745 169.633 161.745C169.195 161.745 170.37 160.213 172.242 158.34C174.116 156.467 175.929 153.528 176.273 151.807C176.617 150.087 177.119 148.899 177.387 149.168C177.655 149.436 177.589 150.794 177.241 152.183ZM220.313 154.479C220.059 155.451 219.835 154.897 219.815 153.248C219.795 151.598 220.002 150.803 220.276 151.48C220.55 152.156 220.567 153.506 220.313 154.479ZM59.3628 157.497C59.1119 158.459 58.9059 157.671 58.9059 155.747C58.9059 153.823 59.1119 153.035 59.3628 153.998C59.6147 154.96 59.6147 156.534 59.3628 157.497ZM221.309 161.495C221.058 162.458 220.852 161.67 220.852 159.746C220.852 157.821 221.058 157.034 221.309 157.996C221.561 158.959 221.561 160.533 221.309 161.495ZM58.3811 165.982C58.1422 167.225 57.9372 166.444 57.9263 164.244C57.9153 162.045 58.1112 161.027 58.3611 161.983C58.611 162.939 58.62 164.738 58.3811 165.982ZM117.404 162.434C116.442 162.686 114.868 162.686 113.906 162.434C112.943 162.183 113.731 161.977 115.655 161.977C117.579 161.977 118.367 162.183 117.404 162.434ZM166.388 162.434C165.426 162.686 163.852 162.686 162.889 162.434C161.927 162.183 162.714 161.977 164.639 161.977C166.563 161.977 167.351 162.183 166.388 162.434ZM218.553 181.993C215.759 184.608 212.494 187.213 211.298 187.78C210.103 188.349 210.698 187.562 212.623 186.031C214.547 184.501 217.548 181.863 219.292 180.173C222.312 177.243 222.445 176.793 222.088 170.671L221.713 164.244L222.674 170.742L223.634 177.24L218.553 181.993ZM196.693 174.023C194.861 175.792 193.72 176.601 194.159 175.82C194.771 174.732 194.518 174.57 193.074 175.124C190.753 176.014 191.539 175.189 195.831 172.227C200.306 169.14 200.763 170.093 196.693 174.023ZM91.722 178.703C90.4894 179.464 94.832 182.89 102.16 186.939C108.052 190.194 107.455 190.69 101.37 187.595C96.3345 185.033 87.3235 178.183 83.1659 173.755L80.1669 170.561L86.4758 174.304C89.9456 176.362 92.3068 178.342 91.722 178.703ZM63.1915 183.298C66.1615 185.836 71.4208 189.436 74.8786 191.3C78.3375 193.164 80.7797 194.699 80.3068 194.711C78.1525 194.768 67.3521 188.096 62.2808 183.576C57.2675 179.108 56.6927 178.192 56.8426 174.911L57.0106 171.242L57.4014 174.964C57.7213 178.011 58.77 179.521 63.1915 183.298ZM86.6647 176.17C86.6647 176.445 87.5644 177.151 88.664 177.74C89.7637 178.329 90.6634 178.585 90.6634 178.31C90.6634 178.035 89.7637 177.329 88.664 176.74C87.5644 176.151 86.6647 175.895 86.6647 176.17ZM190.187 176.647C189.541 177.694 174.622 184.058 174.082 183.518C173.822 183.257 185.91 177.598 190.439 175.859C190.609 175.793 190.496 176.148 190.187 176.647ZM192.547 178.047C192.318 178.216 190.33 179.728 188.131 181.409C184.209 184.405 177.634 188.16 177.634 187.405C177.634 187.194 180.268 185.396 183.486 183.409C186.703 181.423 189.917 179.099 190.626 178.245C191.335 177.391 192.151 176.928 192.439 177.216C192.726 177.504 192.775 177.878 192.547 178.047ZM99.1605 180.811C101.36 181.868 102.035 182.453 100.66 182.111C97.83 181.407 92.6327 178.801 94.1622 178.853C94.712 178.872 96.9613 179.753 99.1605 180.811ZM113.156 185.167C115.905 185.932 117.255 186.564 116.155 186.571C114.027 186.584 105.466 184.007 107.158 183.862C107.708 183.815 110.407 184.403 113.156 185.167ZM167.638 185.737C166.263 186.177 164.239 186.538 163.139 186.538C161.556 186.538 161.66 186.371 163.639 185.737C165.014 185.297 167.038 184.936 168.138 184.936C169.721 184.936 169.617 185.103 167.638 185.737ZM152.643 188.178C155.849 188.874 125.921 188.578 122.153 187.876C119.954 187.468 125.577 187.295 134.649 187.493C143.721 187.691 151.818 187.999 152.643 188.178ZM159.909 187.393C159.233 187.667 157.883 187.683 156.91 187.43C155.938 187.176 156.492 186.952 158.141 186.932C159.79 186.912 160.586 187.119 159.909 187.393ZM174.635 189.236C173.261 190.022 171.686 190.665 171.137 190.665C170.587 190.665 171.262 190.022 172.636 189.236C174.011 188.45 175.585 187.807 176.135 187.807C176.685 187.807 176.01 188.45 174.635 189.236ZM208.624 189.219C208.624 189.826 198.973 194.751 197.911 194.687C197.48 194.661 199.602 193.333 202.626 191.735C208.763 188.493 208.624 188.551 208.624 189.219ZM110.74 190.78C112.618 191.785 112.577 191.99 109.626 196.279C106.42 200.938 105.675 201.183 99.1605 199.717C95.5897 198.914 95.7587 198.872 100.743 199.326L106.325 199.834L108.923 195.908L111.522 191.981L109.34 190.926C108.14 190.346 107.525 189.841 107.974 189.804C108.421 189.766 109.667 190.206 110.74 190.78ZM169.33 191.375C168.978 191.727 170.069 193.863 171.754 196.124L174.817 200.232L171.228 196.317C167.485 192.235 166.834 190.735 168.804 190.735C169.445 190.735 169.682 191.023 169.33 191.375ZM194.129 196.27C192.48 197.025 190.455 197.629 189.63 197.612C188.806 197.595 189.705 196.974 191.63 196.234C196.194 194.476 197.99 194.502 194.129 196.27ZM90.6634 197.181C93.1376 197.961 94.2622 198.595 93.1625 198.59C91.0772 198.58 83.4158 195.932 85.1652 195.825C85.715 195.792 88.1892 196.402 90.6634 197.181ZM185.132 198.733C183.483 199.153 180.783 199.49 179.134 199.483C176.243 199.47 176.261 199.443 179.634 198.733C181.558 198.328 184.257 197.99 185.632 197.983C187.849 197.971 187.793 198.056 185.132 198.733Z" fill="#8192E9"/>
<path fill-rule="evenodd" clip-rule="evenodd" d="M106.882 81.7886C98.4868 83.9879 88.9599 88.3234 82.9379 92.686C73.1752 99.7576 61.621 134.235 58.4771 165.675L57.2415 178.039L62.7057 182.879C72.1855 191.276 86.5227 197.36 101.231 199.228C106.279 199.868 106.312 199.854 108.912 195.925L111.523 191.979L105.094 189.246C98.3758 186.391 88.2911 179.262 83.1659 173.746L80.1668 170.518L86.6647 174.436C101.688 183.493 113.88 186.729 135.68 187.44C149.019 187.876 153.937 187.642 161.172 186.228C172.064 184.098 185.588 178.86 193.648 173.65C200.437 169.263 201.419 169.786 195.878 174.841C188.709 181.382 183.806 184.753 176.247 188.343L168.643 191.954L171.749 195.876C173.728 198.374 175.45 199.63 176.495 199.339C177.397 199.086 180.159 198.59 182.633 198.237C188.935 197.338 196.109 194.965 203.126 191.458C209.826 188.11 220.124 180.537 221.513 177.937C222.735 175.646 221.132 160.185 218.121 145.251C215.078 130.153 209.711 113.873 204.133 102.823C200.209 95.0482 199.281 93.9486 193.973 90.7686C186.555 86.3261 179.205 83.1552 171.935 81.2618C164.765 79.3934 162.005 79.3794 161.303 81.2078C160.896 82.2665 162.774 83.3221 168.444 85.2205C177.898 88.3864 189.128 94.5334 193.109 98.722L196.089 101.856L192.11 100.196C189.921 99.2848 186.02 97.4704 183.44 96.1648C175.856 92.3291 162.303 88.8693 150.494 87.7556C130.561 85.8763 111.002 89.2941 92.7507 97.8463C86.2038 100.914 84.7493 101.329 86.2118 99.7137C90.9643 94.4624 110.88 83.771 115.909 83.771C118.057 83.771 118.764 82.6083 117.523 81.1138C116.132 79.4374 115.763 79.4614 106.882 81.7886ZM122.653 134.587C130.365 140.169 130.614 154.582 123.093 160.063C112.788 167.57 99.6054 156.794 102.638 143.343C104.787 133.817 115.26 129.236 122.653 134.587ZM170.483 133.338C174.929 135.994 177.004 139.704 177.445 145.794C178.642 162.364 160.132 169.143 152.893 154.785C150.156 149.358 150.083 145.582 152.607 140.023C155.904 132.76 164.271 129.631 170.483 133.338Z" fill="white"/>
<path fill-rule="evenodd" clip-rule="evenodd" d="M136.898 87.4857C138.41 87.7146 140.885 87.7146 142.396 87.4857C143.908 87.2568 142.671 87.0698 139.647 87.0698C136.623 87.0698 135.387 87.2568 136.898 87.4857ZM124.465 88.4524C125.186 88.7413 126.049 88.7053 126.381 88.3734C126.712 88.0415 126.123 87.8056 125.069 87.8486C123.904 87.8965 123.667 88.1335 124.465 88.4524ZM187.72 91.1735C185.565 93.4677 185.548 93.6067 187.356 94.1805C188.4 94.5114 190.798 96.3767 192.687 98.3251L196.121 101.869L192.127 100.206C189.928 99.2918 186.973 97.9492 185.559 97.2214C183.031 95.9209 182.539 96.3467 156.607 122.292C138.478 140.431 129.969 148.304 129.397 147.468C128.797 146.586 128.631 146.664 128.798 147.75C129.602 152.992 125.214 159.6 119.193 162.213C117.521 162.939 112.387 167.357 107.782 172.033C98.1529 181.808 97.9779 181.158 111.197 184.74C122.792 187.884 148.752 188.656 161.172 186.228C172.064 184.098 185.588 178.86 193.648 173.65C200.437 169.263 201.419 169.786 195.878 174.841C188.709 181.381 183.806 184.753 176.247 188.343L168.643 191.954L171.749 195.876C173.728 198.374 175.45 199.63 176.495 199.339C177.397 199.086 180.159 198.59 182.633 198.237C188.935 197.338 196.109 194.965 203.126 191.458C209.826 188.11 220.124 180.537 221.513 177.937C222.735 175.646 221.132 160.185 218.121 145.25C215.076 130.143 209.708 113.865 204.129 102.823C200.471 95.582 199.094 93.8446 195.178 91.5183C192.631 90.0058 190.42 88.7693 190.264 88.7693C190.107 88.7693 188.963 89.8509 187.72 91.1735ZM84.8033 100.098C83.9766 101.095 84.0306 101.432 85.0142 101.432C85.739 101.432 86.3318 100.832 86.3318 100.098C86.3318 99.3657 86.2368 98.7659 86.1209 98.7659C86.0049 98.7659 85.4121 99.3657 84.8033 100.098ZM170.483 133.338C174.929 135.994 177.004 139.704 177.445 145.794C178.642 162.364 160.132 169.143 152.893 154.785C150.156 149.358 150.083 145.582 152.607 140.023C155.904 132.76 164.271 129.631 170.483 133.338ZM59.7526 153.331C59.8006 154.495 60.0375 154.732 60.3564 153.936C60.6453 153.214 60.6094 152.351 60.2775 152.019C59.9456 151.687 59.7097 152.277 59.7526 153.331ZM81.2695 171.575C80.9866 172.034 81.3895 172.408 82.1662 172.408C82.9429 172.408 83.3458 172.034 83.0629 171.575C82.78 171.117 82.3761 170.742 82.1662 170.742C81.9563 170.742 81.5524 171.117 81.2695 171.575ZM89.6407 190.124L84.1195 195.466L90.6404 197.077C94.2272 197.964 99.2125 198.962 101.721 199.296C106.167 199.887 106.344 199.805 108.886 195.964L111.493 192.025L103.888 188.631C99.7054 186.765 96.0306 185.134 95.7227 185.009C95.4138 184.883 92.6777 187.185 89.6407 190.124Z" fill="#E9E9E9"/>
</svg>
