<svg viewBox="0 0 64 64" fill="none" xmlns="http://www.w3.org/2000/svg">
<g clip-path="url(#clip0_61_153)">
<path d="M44.3452 44.5201C46.7071 44.2637 48.4988 42.1274 48.4174 39.5639C48.3359 37.0004 46.2999 34.9495 43.8566 34.9495H43.6937C41.169 35.035 39.2143 37.2567 39.2958 39.9057C39.3772 41.1875 39.8659 42.2983 40.5989 43.0674C37.8298 48.7926 33.5948 52.9797 27.2423 56.4832C22.9258 58.8759 18.4465 59.7304 13.9671 59.1322C10.3022 58.6195 7.4517 56.9105 5.65996 54.0906C3.05379 49.9035 2.80947 45.3746 5.00842 40.8457C6.55583 37.5985 8.99911 35.2059 10.5465 34.0096C10.2208 32.8987 9.7321 31.0188 9.48777 29.6516C-2.32142 38.6239 -1.09978 50.758 2.4837 56.4832C5.1713 60.7558 10.628 63.4048 16.6547 63.4048C18.2836 63.4048 19.9124 63.2339 21.5413 62.8066C31.966 60.6703 39.8659 54.176 44.3452 44.5201ZM58.6792 33.9241C52.4895 26.319 43.3679 22.1319 32.9433 22.1319H31.6402C30.9072 20.5937 29.3598 19.5683 27.6495 19.5683H27.4866C24.9619 19.6538 23.0073 21.8755 23.0887 24.5245C23.1701 27.088 25.2062 29.1389 27.6495 29.1389H27.8124C29.6041 29.0534 31.1515 27.8571 31.8031 26.2335H33.269C39.4587 26.2335 45.3226 28.1134 50.6163 31.7878C54.6885 34.6077 57.6204 38.2821 59.2493 42.7256C60.6338 46.3145 60.5523 49.818 59.0864 52.8088C56.806 57.3377 52.9782 59.8158 47.9287 59.8158C44.671 59.8158 41.5762 58.7904 39.9473 58.0214C39.0515 58.8759 37.4226 60.2431 36.2824 61.0976C39.7845 62.8066 43.3679 63.7466 46.7885 63.7466C54.607 63.7466 60.3895 59.2177 62.5884 54.6888C64.9502 49.7326 64.7874 41.1875 58.6792 33.9241ZM17.3063 45.9727C17.3877 48.5363 19.4238 50.5871 21.8671 50.5871H22.0299C24.5547 50.5016 26.5093 48.2799 26.4278 45.6309C26.3464 43.0674 24.3103 41.0166 21.8671 41.0166H21.7042C21.5413 41.0166 21.297 41.0166 21.1341 41.102C17.7949 35.2913 16.4104 28.9679 16.8991 22.1319C17.2248 17.0048 18.8537 12.5613 21.7042 8.88692C24.066 5.72523 28.6268 4.18711 31.7216 4.10166C40.3545 3.93075 44.0195 15.2103 44.2638 19.7392C45.3225 19.9956 47.1143 20.5937 48.3359 21.021C47.3586 7.1779 39.2143 0 31.3959 0C24.066 0 17.3063 5.55433 14.6187 13.7576C10.8723 24.6954 13.3156 35.2059 17.8764 43.4947C17.4692 44.0928 17.2248 45.0328 17.3063 45.9727Z" fill="#764ABC"/>
</g>
<defs>
<clipPath id="clip0_61_153">
<rect width="64" height="64" fill="white"/>
</clipPath>
</defs>
</svg>
